<svg width="598" height="185" viewBox="0 0 598 185" fill="none" xmlns="http://www.w3.org/2000/svg">
  <path
    d="M0 4C0 1.79087 1.79086 0 4 0H196C198.209 0 200 1.79086 200 4V181C200 183.209 198.209 185 196 185H4C1.79086 185 0 183.209 0 181V4Z"
    fill="#1E91D6" />
  <path
    d="M224 4C224 1.79087 225.791 0 228 0H420C422.209 0 424 1.79086 424 4V181C424 183.209 422.209 185 420 185H228C225.791 185 224 183.209 224 181V4Z"
    fill="#038857" />
  <path
    d="M448 61C448 58.7909 449.791 57 452 57H594C596.209 57 598 58.7909 598 61V181C598 183.209 596.209 185 594 185H452C449.791 185 448 183.209 448 181V61Z"
    fill="#FD9406" />
  <path
    d="M4 3H196C196.552 3 197 3.44772 197 4V181C197 181.552 196.552 182 196 182H4C3.44772 182 3 181.552 3 181V4C3 3.44772 3.44772 3 4 3ZM228 3H420C420.552 3 421 3.44772 421 4V181C421 181.552 420.552 182 420 182H228C227.448 182 227 181.552 227 181V4C227 3.44772 227.448 3 228 3ZM452 60H594C594.552 60 595 60.4477 595 61V181C595 181.552 594.552 182 594 182H452C451.448 182 451 181.552 451 181V61C451 60.4477 451.448 60 452 60Z"
    stroke="black" stroke-width="6" />
</svg>