<svg width="1176" height="187" viewBox="0 0 1176 187" fill="none" xmlns="http://www.w3.org/2000/svg">
  <path
    d="M5 4C5 1.79087 6.79086 0 9 0H34C36.2091 0 38 1.79086 38 4V181C38 183.209 36.2091 185 34 185H9C6.79086 185 5 183.209 5 181V4Z"
    fill="#1E91D6" />
  <path fill-rule="evenodd" clip-rule="evenodd"
    d="M11 6V179H32V6H11ZM9 0C6.79086 0 5 1.79087 5 4V181C5 183.209 6.79086 185 9 185H34C36.2091 185 38 183.209 38 181V4C38 1.79086 36.2091 0 34 0H9Z"
    fill="black" />
  <path
    d="M162 4C162 1.79087 163.791 0 166 0H191C193.209 0 195 1.79086 195 4V181C195 183.209 193.209 185 191 185H166C163.791 185 162 183.209 162 181V4Z"
    fill="#1E91D6" />
  <path fill-rule="evenodd" clip-rule="evenodd"
    d="M168 6V179H189V6H168ZM166 0C163.791 0 162 1.79087 162 4V181C162 183.209 163.791 185 166 185H191C193.209 185 195 183.209 195 181V4C195 1.79086 193.209 0 191 0H166Z"
    fill="black" />
  <path
    d="M4 130C1.79086 130 0 128.209 0 126V85C0 82.7909 1.79086 81 4 81H196C198.209 81 200 82.7909 200 85V126C200 128.209 198.209 130 196 130H4Z"
    fill="#1E91D6" />
  <path fill-rule="evenodd" clip-rule="evenodd"
    d="M6 124H194V87H6V124ZM0 126C0 128.209 1.79086 130 4 130H196C198.209 130 200 128.209 200 126V85C200 82.7909 198.209 81 196 81H4C1.79086 81 0 82.7909 0 85V126Z"
    fill="black" />
  <path
    d="M25 97.5C25 99.433 23.433 101 21.5 101C19.567 101 18 99.433 18 97.5C18 95.567 19.567 94 21.5 94C23.433 94 25 95.567 25 97.5Z"
    fill="black" />
  <path
    d="M25 115.5C25 117.433 23.433 119 21.5 119C19.567 119 18 117.433 18 115.5C18 113.567 19.567 112 21.5 112C23.433 112 25 113.567 25 115.5Z"
    fill="black" />
  <path
    d="M182 97.5C182 99.433 180.433 101 178.5 101C176.567 101 175 99.433 175 97.5C175 95.567 176.567 94 178.5 94C180.433 94 182 95.567 182 97.5Z"
    fill="black" />
  <path
    d="M182 115.5C182 117.433 180.433 119 178.5 119C176.567 119 175 117.433 175 115.5C175 113.567 176.567 112 178.5 112C180.433 112 182 113.567 182 115.5Z"
    fill="black" />
  <path
    d="M4 75C1.79086 75 0 73.2091 0 71V30C0 27.7909 1.79086 26 4 26H196C198.209 26 200 27.7909 200 30V71C200 73.2091 198.209 75 196 75H4Z"
    fill="#1E91D6" />
  <path fill-rule="evenodd" clip-rule="evenodd"
    d="M6 69H194V32H6V69ZM0 71C0 73.2091 1.79086 75 4 75H196C198.209 75 200 73.2091 200 71V30C200 27.7909 198.209 26 196 26H4C1.79086 26 0 27.7909 0 30V71Z"
    fill="black" />
  <path
    d="M25 42.5C25 44.433 23.433 46 21.5 46C19.567 46 18 44.433 18 42.5C18 40.567 19.567 39 21.5 39C23.433 39 25 40.567 25 42.5Z"
    fill="black" />
  <path
    d="M25 60.5C25 62.433 23.433 64 21.5 64C19.567 64 18 62.433 18 60.5C18 58.567 19.567 57 21.5 57C23.433 57 25 58.567 25 60.5Z"
    fill="black" />
  <path
    d="M182 42.5C182 44.433 180.433 46 178.5 46C176.567 46 175 44.433 175 42.5C175 40.567 176.567 39 178.5 39C180.433 39 182 40.567 182 42.5Z"
    fill="black" />
  <path
    d="M182 60.5C182 62.433 180.433 64 178.5 64C176.567 64 175 62.433 175 60.5C175 58.567 176.567 57 178.5 57C180.433 57 182 58.567 182 60.5Z"
    fill="black" />
  <path
    d="M4 185C1.79086 185 0 183.209 0 181V140C0 137.791 1.79086 136 4 136H196C198.209 136 200 137.791 200 140V181C200 183.209 198.209 185 196 185H4Z"
    fill="#1E91D6" />
  <path fill-rule="evenodd" clip-rule="evenodd"
    d="M6 179H194V142H6V179ZM0 181C0 183.209 1.79086 185 4 185H196C198.209 185 200 183.209 200 181V140C200 137.791 198.209 136 196 136H4C1.79086 136 0 137.791 0 140V181Z"
    fill="black" />
  <path
    d="M25 151.5C25 153.433 23.433 155 21.5 155C19.567 155 18 153.433 18 151.5C18 149.567 19.567 148 21.5 148C23.433 148 25 149.567 25 151.5Z"
    fill="black" />
  <path
    d="M25 169.5C25 171.433 23.433 173 21.5 173C19.567 173 18 171.433 18 169.5C18 167.567 19.567 166 21.5 166C23.433 166 25 167.567 25 169.5Z"
    fill="black" />
  <path
    d="M182 151.5C182 153.433 180.433 155 178.5 155C176.567 155 175 153.433 175 151.5C175 149.567 176.567 148 178.5 148C180.433 148 182 149.567 182 151.5Z"
    fill="black" />
  <path
    d="M182 169.5C182 171.433 180.433 173 178.5 173C176.567 173 175 171.433 175 169.5C175 167.567 176.567 166 178.5 166C180.433 166 182 167.567 182 169.5Z"
    fill="black" />
  <path
    d="M229 4C229 1.79087 230.791 0 233 0H258C260.209 0 262 1.79086 262 4V181C262 183.209 260.209 185 258 185H233C230.791 185 229 183.209 229 181V4Z"
    fill="#038857" />
  <path fill-rule="evenodd" clip-rule="evenodd"
    d="M235 6V179H256V6H235ZM233 0C230.791 0 229 1.79087 229 4V181C229 183.209 230.791 185 233 185H258C260.209 185 262 183.209 262 181V4C262 1.79086 260.209 0 258 0H233Z"
    fill="black" />
  <path
    d="M386 4C386 1.79087 387.791 0 390 0H415C417.209 0 419 1.79086 419 4V181C419 183.209 417.209 185 415 185H390C387.791 185 386 183.209 386 181V4Z"
    fill="#038857" />
  <path fill-rule="evenodd" clip-rule="evenodd"
    d="M392 6V179H413V6H392ZM390 0C387.791 0 386 1.79087 386 4V181C386 183.209 387.791 185 390 185H415C417.209 185 419 183.209 419 181V4C419 1.79086 417.209 0 415 0H390Z"
    fill="black" />
  <path
    d="M228 130C225.791 130 224 128.209 224 126V85C224 82.7909 225.791 81 228 81H420C422.209 81 424 82.7909 424 85V126C424 128.209 422.209 130 420 130H228Z"
    fill="#038857" />
  <path fill-rule="evenodd" clip-rule="evenodd"
    d="M230 124H418V87H230V124ZM224 126C224 128.209 225.791 130 228 130H420C422.209 130 424 128.209 424 126V85C424 82.7909 422.209 81 420 81H228C225.791 81 224 82.7909 224 85V126Z"
    fill="black" />
  <path
    d="M249 97.5C249 99.433 247.433 101 245.5 101C243.567 101 242 99.433 242 97.5C242 95.567 243.567 94 245.5 94C247.433 94 249 95.567 249 97.5Z"
    fill="black" />
  <path
    d="M249 115.5C249 117.433 247.433 119 245.5 119C243.567 119 242 117.433 242 115.5C242 113.567 243.567 112 245.5 112C247.433 112 249 113.567 249 115.5Z"
    fill="black" />
  <path
    d="M406 97.5C406 99.433 404.433 101 402.5 101C400.567 101 399 99.433 399 97.5C399 95.567 400.567 94 402.5 94C404.433 94 406 95.567 406 97.5Z"
    fill="black" />
  <path
    d="M406 115.5C406 117.433 404.433 119 402.5 119C400.567 119 399 117.433 399 115.5C399 113.567 400.567 112 402.5 112C404.433 112 406 113.567 406 115.5Z"
    fill="black" />
  <path
    d="M228 75C225.791 75 224 73.2091 224 71V30C224 27.7909 225.791 26 228 26H420C422.209 26 424 27.7909 424 30V71C424 73.2091 422.209 75 420 75H228Z"
    fill="#038857" />
  <path fill-rule="evenodd" clip-rule="evenodd"
    d="M230 69H418V32H230V69ZM224 71C224 73.2091 225.791 75 228 75H420C422.209 75 424 73.2091 424 71V30C424 27.7909 422.209 26 420 26H228C225.791 26 224 27.7909 224 30V71Z"
    fill="black" />
  <path
    d="M228 75C225.791 75 224 73.2091 224 71V30C224 27.7909 225.791 26 228 26H420C422.209 26 424 27.7909 424 30V71C424 73.2091 422.209 75 420 75H228Z"
    fill="#038857" />
  <path fill-rule="evenodd" clip-rule="evenodd"
    d="M230 69H418V32H230V69ZM224 71C224 73.2091 225.791 75 228 75H420C422.209 75 424 73.2091 424 71V30C424 27.7909 422.209 26 420 26H228C225.791 26 224 27.7909 224 30V71Z"
    fill="black" />
  <path
    d="M249 42.5C249 44.433 247.433 46 245.5 46C243.567 46 242 44.433 242 42.5C242 40.567 243.567 39 245.5 39C247.433 39 249 40.567 249 42.5Z"
    fill="black" />
  <path
    d="M249 60.5C249 62.433 247.433 64 245.5 64C243.567 64 242 62.433 242 60.5C242 58.567 243.567 57 245.5 57C247.433 57 249 58.567 249 60.5Z"
    fill="black" />
  <path
    d="M406 42.5C406 44.433 404.433 46 402.5 46C400.567 46 399 44.433 399 42.5C399 40.567 400.567 39 402.5 39C404.433 39 406 40.567 406 42.5Z"
    fill="black" />
  <path
    d="M406 60.5C406 62.433 404.433 64 402.5 64C400.567 64 399 62.433 399 60.5C399 58.567 400.567 57 402.5 57C404.433 57 406 58.567 406 60.5Z"
    fill="black" />
  <path
    d="M228 185C225.791 185 224 183.209 224 181V140C224 137.791 225.791 136 228 136H420C422.209 136 424 137.791 424 140V181C424 183.209 422.209 185 420 185H228Z"
    fill="#038857" />
  <path fill-rule="evenodd" clip-rule="evenodd"
    d="M230 179H418V142H230V179ZM224 181C224 183.209 225.791 185 228 185H420C422.209 185 424 183.209 424 181V140C424 137.791 422.209 136 420 136H228C225.791 136 224 137.791 224 140V181Z"
    fill="black" />
  <path
    d="M249 151.5C249 153.433 247.433 155 245.5 155C243.567 155 242 153.433 242 151.5C242 149.567 243.567 148 245.5 148C247.433 148 249 149.567 249 151.5Z"
    fill="black" />
  <path
    d="M249 169.5C249 171.433 247.433 173 245.5 173C243.567 173 242 171.433 242 169.5C242 167.567 243.567 166 245.5 166C247.433 166 249 167.567 249 169.5Z"
    fill="black" />
  <path
    d="M406 151.5C406 153.433 404.433 155 402.5 155C400.567 155 399 153.433 399 151.5C399 149.567 400.567 148 402.5 148C404.433 148 406 149.567 406 151.5Z"
    fill="black" />
  <path
    d="M406 169.5C406 171.433 404.433 173 402.5 173C400.567 173 399 171.433 399 169.5C399 167.567 400.567 166 402.5 166C404.433 166 406 167.567 406 169.5Z"
    fill="black" />
  <path
    d="M453 61C453 58.7909 454.791 57 457 57H482C484.209 57 486 58.7909 486 61V181C486 183.209 484.209 185 482 185H457C454.791 185 453 183.209 453 181V61Z"
    fill="#FD9406" />
  <path fill-rule="evenodd" clip-rule="evenodd"
    d="M459 63V179H480V63H459ZM457 57C454.791 57 453 58.7909 453 61V181C453 183.209 454.791 185 457 185H482C484.209 185 486 183.209 486 181V61C486 58.7909 484.209 57 482 57H457Z"
    fill="black" />
  <path
    d="M561 61C561 58.7909 562.791 57 565 57H590C592.209 57 594 58.7909 594 61V181C594 183.209 592.209 185 590 185H565C562.791 185 561 183.209 561 181V61Z"
    fill="#FD9406" />
  <path fill-rule="evenodd" clip-rule="evenodd"
    d="M567 63V179H588V63H567ZM565 57C562.791 57 561 58.7909 561 61V181C561 183.209 562.791 185 565 185H590C592.209 185 594 183.209 594 181V61C594 58.7909 592.209 57 590 57H565Z"
    fill="black" />
  <path
    d="M473 97.5C473 99.433 471.433 101 469.5 101C467.567 101 466 99.433 466 97.5C466 95.567 467.567 94 469.5 94C471.433 94 473 95.567 473 97.5Z"
    fill="black" />
  <path
    d="M473 115.5C473 117.433 471.433 119 469.5 119C467.567 119 466 117.433 466 115.5C466 113.567 467.567 112 469.5 112C471.433 112 473 113.567 473 115.5Z"
    fill="black" />
  <path
    d="M452 130C449.791 130 448 128.209 448 126V85C448 82.7909 449.791 81 452 81H594C596.209 81 598 82.7909 598 85V126C598 128.209 596.209 130 594 130H452Z"
    fill="#FD9406" />
  <path fill-rule="evenodd" clip-rule="evenodd"
    d="M454 124H592V87H454V124ZM448 126C448 128.209 449.791 130 452 130H594C596.209 130 598 128.209 598 126V85C598 82.7909 596.209 81 594 81H452C449.791 81 448 82.7909 448 85V126Z"
    fill="black" />
  <path
    d="M473 97.5C473 99.433 471.433 101 469.5 101C467.567 101 466 99.433 466 97.5C466 95.567 467.567 94 469.5 94C471.433 94 473 95.567 473 97.5Z"
    fill="black" />
  <path
    d="M473 115.5C473 117.433 471.433 119 469.5 119C467.567 119 466 117.433 466 115.5C466 113.567 467.567 112 469.5 112C471.433 112 473 113.567 473 115.5Z"
    fill="black" />
  <path
    d="M581 97.5C581 99.433 579.433 101 577.5 101C575.567 101 574 99.433 574 97.5C574 95.567 575.567 94 577.5 94C579.433 94 581 95.567 581 97.5Z"
    fill="black" />
  <path
    d="M581 115.5C581 117.433 579.433 119 577.5 119C575.567 119 574 117.433 574 115.5C574 113.567 575.567 112 577.5 112C579.433 112 581 113.567 581 115.5Z"
    fill="black" />
  <path
    d="M452 185C449.791 185 448 183.209 448 181V140C448 137.791 449.791 136 452 136H594C596.209 136 598 137.791 598 140V181C598 183.209 596.209 185 594 185H452Z"
    fill="#FD9406" />
  <path fill-rule="evenodd" clip-rule="evenodd"
    d="M454 179H592V142H454V179ZM448 181C448 183.209 449.791 185 452 185H594C596.209 185 598 183.209 598 181V140C598 137.791 596.209 136 594 136H452C449.791 136 448 137.791 448 140V181Z"
    fill="black" />
  <path
    d="M473 152.5C473 154.433 471.433 156 469.5 156C467.567 156 466 154.433 466 152.5C466 150.567 467.567 149 469.5 149C471.433 149 473 150.567 473 152.5Z"
    fill="black" />
  <path
    d="M473 170.5C473 172.433 471.433 174 469.5 174C467.567 174 466 172.433 466 170.5C466 168.567 467.567 167 469.5 167C471.433 167 473 168.567 473 170.5Z"
    fill="black" />
  <path
    d="M581 152.5C581 154.433 579.433 156 577.5 156C575.567 156 574 154.433 574 152.5C574 150.567 575.567 149 577.5 149C579.433 149 581 150.567 581 152.5Z"
    fill="black" />
  <path
    d="M581 170.5C581 172.433 579.433 174 577.5 174C575.567 174 574 172.433 574 170.5C574 168.567 575.567 167 577.5 167C579.433 167 581 168.567 581 170.5Z"
    fill="black" />
  <path d="M628.254 185V81.0156H649.76V185H628.254Z" fill="black" />
  <path
    d="M689.132 185.945C682.83 185.945 677.808 184.764 674.066 182.4C670.324 180.037 667.646 176.63 666.031 172.179C664.416 167.728 663.609 162.372 663.609 156.109V120.482C663.609 112.25 665.972 106.027 670.698 101.812C675.425 97.5586 681.924 95.4316 690.195 95.4316C707.211 95.4316 715.719 103.782 715.719 120.482V126.922C715.719 134.721 715.64 139.96 715.483 142.638H684.76V159.772C684.76 161.347 684.858 162.903 685.055 164.439C685.252 165.936 685.686 167.177 686.355 168.162C687.064 169.146 688.187 169.639 689.723 169.639C691.929 169.639 693.307 168.693 693.859 166.803C694.41 164.873 694.686 162.372 694.686 159.299V150.792H715.719V155.813C715.719 162.431 714.892 167.984 713.237 172.475C711.623 176.925 708.865 180.293 704.966 182.578C701.106 184.823 695.828 185.945 689.132 185.945ZM684.642 132.122H694.686V120.187C694.686 116.997 694.292 114.712 693.504 113.333C692.716 111.916 691.535 111.207 689.959 111.207C688.265 111.207 686.946 111.876 686.001 113.215C685.095 114.555 684.642 116.878 684.642 120.187V132.122Z"
    fill="black" />
  <path
    d="M753.732 185.945C736.244 185.945 727.5 177.083 727.5 159.358V152.328H748.769V162.726C748.769 164.735 749.163 166.31 749.951 167.453C750.739 168.595 751.999 169.166 753.732 169.166C756.805 169.166 758.341 166.862 758.341 162.253C758.341 158.393 757.533 155.518 755.918 153.627C754.303 151.697 752.334 149.846 750.01 148.074L738.725 139.389C735.181 136.632 732.482 133.717 730.631 130.645C728.78 127.572 727.854 123.299 727.854 117.824C727.854 112.743 729.056 108.548 731.458 105.239C733.9 101.931 737.111 99.4689 741.089 97.854C745.106 96.2391 749.439 95.4316 754.087 95.4316C771.26 95.4316 779.847 103.999 779.847 121.132V122.787H757.986V119.419C757.986 117.646 757.671 115.933 757.041 114.279C756.45 112.625 755.268 111.797 753.496 111.797C750.502 111.797 749.006 113.373 749.006 116.524C749.006 119.714 750.266 122.215 752.787 124.027L765.903 133.599C770 136.553 773.426 140.058 776.183 144.115C778.98 148.172 780.378 153.568 780.378 160.304C780.378 168.654 777.995 175.015 773.229 179.387C768.503 183.759 762.004 185.945 753.732 185.945Z"
    fill="black" />
  <path
    d="M851.679 186.182C842.501 186.182 835.825 183.759 831.65 178.915C827.475 174.07 825.387 166.763 825.387 156.995V146.124H846.716V157.054C846.716 159.811 847.05 162.155 847.72 164.085C848.429 165.976 849.985 166.921 852.388 166.921C854.83 166.921 856.385 165.897 857.055 163.849C857.725 161.761 858.059 158.374 858.059 153.687V151.087C858.059 147.503 857.449 144.371 856.228 141.693C855.046 139.014 852.703 137.675 849.197 137.675C848.764 137.675 848.37 137.695 848.015 137.734C847.7 137.734 847.425 137.754 847.188 137.793V119.124C850.773 119.124 853.51 118.336 855.401 116.76C857.291 115.145 858.237 112.467 858.237 108.725C858.237 102.856 856.543 99.9219 853.156 99.9219C850.95 99.9219 849.453 100.788 848.665 102.521C847.917 104.215 847.543 106.382 847.543 109.021V112.152H826.037C825.998 111.679 825.958 111.108 825.919 110.438C825.919 109.769 825.919 109.119 825.919 108.489C825.919 98.9569 828.144 91.9655 832.595 87.5146C837.046 83.0638 843.86 80.8384 853.037 80.8384C870.762 80.8384 879.624 90.0552 879.624 108.489C879.624 113.609 878.935 117.843 877.556 121.191C876.178 124.5 873.618 126.824 869.876 128.163C872.83 129.581 875.016 131.393 876.434 133.599C877.852 135.804 878.777 138.542 879.211 141.811C879.644 145.08 879.861 149.039 879.861 153.687C879.861 164.085 877.675 172.1 873.303 177.733C868.97 183.365 861.762 186.182 851.679 186.182Z"
    fill="black" />
  <path
    d="M962.977 185.945C959.511 185.945 956.695 185.098 954.529 183.405C952.362 181.672 950.629 179.052 949.329 175.547V185H927.823V81.0156H949.329V105.83C950.629 102.561 952.421 100.02 954.706 98.2085C957.03 96.3573 960.338 95.4316 964.632 95.4316C970.422 95.4316 974.498 97.5389 976.862 101.753C979.264 105.968 980.466 111.482 980.466 118.296V161.899C980.466 166.429 979.835 170.525 978.575 174.188C977.354 177.812 975.444 180.687 972.844 182.814C970.284 184.902 966.995 185.945 962.977 185.945ZM954.233 169.461C956.478 169.461 957.837 168.359 958.31 166.153C958.782 163.947 959.019 161.229 959.019 158V123.377C959.019 120.108 958.782 117.39 958.31 115.224C957.837 113.018 956.498 111.916 954.292 111.916C952.008 111.916 950.609 113.038 950.097 115.283C949.585 117.489 949.329 120.187 949.329 123.377V158C949.329 161.19 949.585 163.908 950.097 166.153C950.609 168.359 951.988 169.461 954.233 169.461Z"
    fill="black" />
  <path
    d="M1010.5 185.945C1005.58 185.945 1001.82 184.803 999.218 182.519C996.658 180.234 994.905 177.103 993.96 173.125C993.015 169.146 992.542 164.636 992.542 159.595C992.542 154.199 993.074 149.787 994.137 146.36C995.201 142.894 997.012 140.058 999.573 137.853C1002.17 135.647 1005.74 133.776 1010.27 132.24L1023.38 127.75V118.651C1023.38 113.885 1021.83 111.502 1018.72 111.502C1015.88 111.502 1014.46 113.432 1014.46 117.292V122.609H993.901C993.861 122.294 993.842 121.9 993.842 121.428C993.842 120.916 993.842 120.345 993.842 119.714C993.842 110.891 995.91 104.648 1000.05 100.985C1004.22 97.2829 1010.82 95.4316 1019.84 95.4316C1024.56 95.4316 1028.8 96.2785 1032.54 97.9722C1036.28 99.6265 1039.24 102.088 1041.4 105.357C1043.61 108.627 1044.71 112.664 1044.71 117.469V185H1023.68V174.483C1022.65 178.186 1020.96 181.022 1018.6 182.991C1016.23 184.961 1013.54 185.945 1010.5 185.945ZM1018.83 169.521C1020.57 169.521 1021.75 168.792 1022.38 167.334C1023.01 165.877 1023.32 164.302 1023.32 162.608V137.912C1020.41 139.093 1018.14 140.59 1016.53 142.402C1014.91 144.174 1014.11 146.794 1014.11 150.26V161.663C1014.11 166.901 1015.68 169.521 1018.83 169.521Z"
    fill="black" />
  <path
    d="M1085.56 185.945C1075.63 185.945 1068.58 183.405 1064.41 178.324C1060.27 173.243 1058.21 165.779 1058.21 155.932V128.636C1058.21 121.231 1058.99 115.067 1060.57 110.143C1062.14 105.22 1064.9 101.537 1068.84 99.0947C1072.78 96.6527 1078.25 95.4316 1085.27 95.4316C1090.15 95.4316 1094.52 96.2982 1098.38 98.0312C1102.28 99.7643 1105.35 102.305 1107.6 105.653C1109.84 109.001 1110.97 113.097 1110.97 117.942V131.472H1089.4V119.064C1089.4 117.016 1089.11 115.303 1088.51 113.924C1087.92 112.506 1086.64 111.797 1084.67 111.797C1081.21 111.797 1079.48 114.259 1079.48 119.183V162.135C1079.48 163.947 1079.87 165.621 1080.66 167.157C1081.44 168.654 1082.74 169.402 1084.56 169.402C1086.41 169.402 1087.69 168.674 1088.4 167.216C1089.14 165.72 1089.52 163.986 1089.52 162.017V147.128H1110.97V162.608C1110.97 167.492 1109.86 171.687 1107.66 175.192C1105.49 178.659 1102.5 181.317 1098.68 183.168C1094.86 185.02 1090.48 185.945 1085.56 185.945Z"
    fill="black" />
  <path
    d="M1148.68 185.945C1131.2 185.945 1122.45 177.083 1122.45 159.358V152.328H1143.72V162.726C1143.72 164.735 1144.11 166.31 1144.9 167.453C1145.69 168.595 1146.95 169.166 1148.68 169.166C1151.76 169.166 1153.29 166.862 1153.29 162.253C1153.29 158.393 1152.48 155.518 1150.87 153.627C1149.25 151.697 1147.29 149.846 1144.96 148.074L1133.68 139.389C1130.13 136.632 1127.43 133.717 1125.58 130.645C1123.73 127.572 1122.81 123.299 1122.81 117.824C1122.81 112.743 1124.01 108.548 1126.41 105.239C1128.85 101.931 1132.06 99.4689 1136.04 97.854C1140.06 96.2391 1144.39 95.4316 1149.04 95.4316C1166.21 95.4316 1174.8 103.999 1174.8 121.132V122.787H1152.94V119.419C1152.94 117.646 1152.62 115.933 1151.99 114.279C1151.4 112.625 1150.22 111.797 1148.45 111.797C1145.45 111.797 1143.96 113.373 1143.96 116.524C1143.96 119.714 1145.22 122.215 1147.74 124.027L1160.85 133.599C1164.95 136.553 1168.38 140.058 1171.14 144.115C1173.93 148.172 1175.33 153.568 1175.33 160.304C1175.33 168.654 1172.95 175.015 1168.18 179.387C1163.45 183.759 1156.96 185.945 1148.68 185.945Z"
    fill="black" />
</svg>