<svg width="598" height="335" viewBox="0 0 598 335" fill="none"
  xmlns="http://www.w3.org/2000/svg">
  <path d="M5 4C5 1.79087 6.79086 0 9 0H34C36.2091 0 38 1.79086 38 4V181C38 183.209 36.2091 185 34 185H9C6.79086 185 5 183.209 5 181V4Z" fill="#1E91D6"/>
  <path fill-rule="evenodd" clip-rule="evenodd" d="M11 6V179H32V6H11ZM9 0C6.79086 0 5 1.79087 5 4V181C5 183.209 6.79086 185 9 185H34C36.2091 185 38 183.209 38 181V4C38 1.79086 36.2091 0 34 0H9Z" fill="black"/>
  <path d="M162 4C162 1.79087 163.791 0 166 0H191C193.209 0 195 1.79086 195 4V181C195 183.209 193.209 185 191 185H166C163.791 185 162 183.209 162 181V4Z" fill="#1E91D6"/>
  <path fill-rule="evenodd" clip-rule="evenodd" d="M168 6V179H189V6H168ZM166 0C163.791 0 162 1.79087 162 4V181C162 183.209 163.791 185 166 185H191C193.209 185 195 183.209 195 181V4C195 1.79086 193.209 0 191 0H166Z" fill="black"/>
  <path d="M4 130C1.79086 130 0 128.209 0 126L0 85C0 82.7909 1.79086 81 4 81L196 81C198.209 81 200 82.7909 200 85V126C200 128.209 198.209 130 196 130H4Z" fill="#1E91D6"/>
  <path fill-rule="evenodd" clip-rule="evenodd" d="M6 124L194 124V87L6 87L6 124ZM0 126C0 128.209 1.79086 130 4 130H196C198.209 130 200 128.209 200 126V85C200 82.7909 198.209 81 196 81L4 81C1.79086 81 0 82.7909 0 85L0 126Z" fill="black"/>
  <path d="M25 97.5C25 99.433 23.433 101 21.5 101C19.567 101 18 99.433 18 97.5C18 95.567 19.567 94 21.5 94C23.433 94 25 95.567 25 97.5Z" fill="black"/>
  <path d="M25 115.5C25 117.433 23.433 119 21.5 119C19.567 119 18 117.433 18 115.5C18 113.567 19.567 112 21.5 112C23.433 112 25 113.567 25 115.5Z" fill="black"/>
  <path d="M182 97.5C182 99.433 180.433 101 178.5 101C176.567 101 175 99.433 175 97.5C175 95.567 176.567 94 178.5 94C180.433 94 182 95.567 182 97.5Z" fill="black"/>
  <path d="M182 115.5C182 117.433 180.433 119 178.5 119C176.567 119 175 117.433 175 115.5C175 113.567 176.567 112 178.5 112C180.433 112 182 113.567 182 115.5Z" fill="black"/>
  <path d="M4 75C1.79086 75 0 73.2091 0 71L0 30C0 27.7909 1.79086 26 4 26L196 26C198.209 26 200 27.7909 200 30V71C200 73.2091 198.209 75 196 75L4 75Z" fill="#1E91D6"/>
  <path fill-rule="evenodd" clip-rule="evenodd" d="M6 69L194 69V32L6 32L6 69ZM0 71C0 73.2091 1.79086 75 4 75L196 75C198.209 75 200 73.2091 200 71V30C200 27.7909 198.209 26 196 26L4 26C1.79086 26 0 27.7909 0 30L0 71Z" fill="black"/>
  <path d="M25 42.5C25 44.433 23.433 46 21.5 46C19.567 46 18 44.433 18 42.5C18 40.567 19.567 39 21.5 39C23.433 39 25 40.567 25 42.5Z" fill="black"/>
  <path d="M25 60.5C25 62.433 23.433 64 21.5 64C19.567 64 18 62.433 18 60.5C18 58.567 19.567 57 21.5 57C23.433 57 25 58.567 25 60.5Z" fill="black"/>
  <path d="M182 42.5C182 44.433 180.433 46 178.5 46C176.567 46 175 44.433 175 42.5C175 40.567 176.567 39 178.5 39C180.433 39 182 40.567 182 42.5Z" fill="black"/>
  <path d="M182 60.5C182 62.433 180.433 64 178.5 64C176.567 64 175 62.433 175 60.5C175 58.567 176.567 57 178.5 57C180.433 57 182 58.567 182 60.5Z" fill="black"/>
  <path d="M4 185C1.79086 185 0 183.209 0 181L0 140C0 137.791 1.79086 136 4 136H196C198.209 136 200 137.791 200 140V181C200 183.209 198.209 185 196 185H4Z" fill="#1E91D6"/>
  <path fill-rule="evenodd" clip-rule="evenodd" d="M6 179H194V142H6L6 179ZM0 181C0 183.209 1.79086 185 4 185H196C198.209 185 200 183.209 200 181V140C200 137.791 198.209 136 196 136H4C1.79086 136 0 137.791 0 140L0 181Z" fill="black"/>
  <path d="M25 151.5C25 153.433 23.433 155 21.5 155C19.567 155 18 153.433 18 151.5C18 149.567 19.567 148 21.5 148C23.433 148 25 149.567 25 151.5Z" fill="black"/>
  <path d="M25 169.5C25 171.433 23.433 173 21.5 173C19.567 173 18 171.433 18 169.5C18 167.567 19.567 166 21.5 166C23.433 166 25 167.567 25 169.5Z" fill="black"/>
  <path d="M182 151.5C182 153.433 180.433 155 178.5 155C176.567 155 175 153.433 175 151.5C175 149.567 176.567 148 178.5 148C180.433 148 182 149.567 182 151.5Z" fill="black"/>
  <path d="M182 169.5C182 171.433 180.433 173 178.5 173C176.567 173 175 171.433 175 169.5C175 167.567 176.567 166 178.5 166C180.433 166 182 167.567 182 169.5Z" fill="black"/>
  <path d="M229 4C229 1.79087 230.791 0 233 0H258C260.209 0 262 1.79086 262 4V181C262 183.209 260.209 185 258 185H233C230.791 185 229 183.209 229 181V4Z" fill="#038857"/>
  <path fill-rule="evenodd" clip-rule="evenodd" d="M235 6V179H256V6H235ZM233 0C230.791 0 229 1.79087 229 4V181C229 183.209 230.791 185 233 185H258C260.209 185 262 183.209 262 181V4C262 1.79086 260.209 0 258 0H233Z" fill="black"/>
  <path d="M386 4C386 1.79087 387.791 0 390 0H415C417.209 0 419 1.79086 419 4V181C419 183.209 417.209 185 415 185H390C387.791 185 386 183.209 386 181V4Z" fill="#038857"/>
  <path fill-rule="evenodd" clip-rule="evenodd" d="M392 6V179H413V6H392ZM390 0C387.791 0 386 1.79087 386 4V181C386 183.209 387.791 185 390 185H415C417.209 185 419 183.209 419 181V4C419 1.79086 417.209 0 415 0H390Z" fill="black"/>
  <path d="M228 130C225.791 130 224 128.209 224 126V85C224 82.7909 225.791 81 228 81L420 81C422.209 81 424 82.7909 424 85V126C424 128.209 422.209 130 420 130H228Z" fill="#038857"/>
  <path fill-rule="evenodd" clip-rule="evenodd" d="M230 124L418 124V87L230 87V124ZM224 126C224 128.209 225.791 130 228 130H420C422.209 130 424 128.209 424 126V85C424 82.7909 422.209 81 420 81L228 81C225.791 81 224 82.7909 224 85V126Z" fill="black"/>
  <path d="M249 97.5C249 99.433 247.433 101 245.5 101C243.567 101 242 99.433 242 97.5C242 95.567 243.567 94 245.5 94C247.433 94 249 95.567 249 97.5Z" fill="black"/>
  <path d="M249 115.5C249 117.433 247.433 119 245.5 119C243.567 119 242 117.433 242 115.5C242 113.567 243.567 112 245.5 112C247.433 112 249 113.567 249 115.5Z" fill="black"/>
  <path d="M406 97.5C406 99.433 404.433 101 402.5 101C400.567 101 399 99.433 399 97.5C399 95.567 400.567 94 402.5 94C404.433 94 406 95.567 406 97.5Z" fill="black"/>
  <path d="M406 115.5C406 117.433 404.433 119 402.5 119C400.567 119 399 117.433 399 115.5C399 113.567 400.567 112 402.5 112C404.433 112 406 113.567 406 115.5Z" fill="black"/>
  <path d="M228 75C225.791 75 224 73.2091 224 71V30C224 27.7909 225.791 26 228 26L420 26C422.209 26 424 27.7909 424 30V71C424 73.2091 422.209 75 420 75L228 75Z" fill="#038857"/>
  <path fill-rule="evenodd" clip-rule="evenodd" d="M230 69L418 69V32L230 32V69ZM224 71C224 73.2091 225.791 75 228 75L420 75C422.209 75 424 73.2091 424 71V30C424 27.7909 422.209 26 420 26L228 26C225.791 26 224 27.7909 224 30V71Z" fill="black"/>
  <path d="M228 75C225.791 75 224 73.2091 224 71V30C224 27.7909 225.791 26 228 26L420 26C422.209 26 424 27.7909 424 30V71C424 73.2091 422.209 75 420 75L228 75Z" fill="#038857"/>
  <path fill-rule="evenodd" clip-rule="evenodd" d="M230 69L418 69V32L230 32V69ZM224 71C224 73.2091 225.791 75 228 75L420 75C422.209 75 424 73.2091 424 71V30C424 27.7909 422.209 26 420 26L228 26C225.791 26 224 27.7909 224 30V71Z" fill="black"/>
  <path d="M249 42.5C249 44.433 247.433 46 245.5 46C243.567 46 242 44.433 242 42.5C242 40.567 243.567 39 245.5 39C247.433 39 249 40.567 249 42.5Z" fill="black"/>
  <path d="M249 60.5C249 62.433 247.433 64 245.5 64C243.567 64 242 62.433 242 60.5C242 58.567 243.567 57 245.5 57C247.433 57 249 58.567 249 60.5Z" fill="black"/>
  <path d="M406 42.5C406 44.433 404.433 46 402.5 46C400.567 46 399 44.433 399 42.5C399 40.567 400.567 39 402.5 39C404.433 39 406 40.567 406 42.5Z" fill="black"/>
  <path d="M406 60.5C406 62.433 404.433 64 402.5 64C400.567 64 399 62.433 399 60.5C399 58.567 400.567 57 402.5 57C404.433 57 406 58.567 406 60.5Z" fill="black"/>
  <path d="M228 185C225.791 185 224 183.209 224 181V140C224 137.791 225.791 136 228 136H420C422.209 136 424 137.791 424 140V181C424 183.209 422.209 185 420 185H228Z" fill="#038857"/>
  <path fill-rule="evenodd" clip-rule="evenodd" d="M230 179H418V142H230V179ZM224 181C224 183.209 225.791 185 228 185H420C422.209 185 424 183.209 424 181V140C424 137.791 422.209 136 420 136H228C225.791 136 224 137.791 224 140V181Z" fill="black"/>
  <path d="M249 151.5C249 153.433 247.433 155 245.5 155C243.567 155 242 153.433 242 151.5C242 149.567 243.567 148 245.5 148C247.433 148 249 149.567 249 151.5Z" fill="black"/>
  <path d="M249 169.5C249 171.433 247.433 173 245.5 173C243.567 173 242 171.433 242 169.5C242 167.567 243.567 166 245.5 166C247.433 166 249 167.567 249 169.5Z" fill="black"/>
  <path d="M406 151.5C406 153.433 404.433 155 402.5 155C400.567 155 399 153.433 399 151.5C399 149.567 400.567 148 402.5 148C404.433 148 406 149.567 406 151.5Z" fill="black"/>
  <path d="M406 169.5C406 171.433 404.433 173 402.5 173C400.567 173 399 171.433 399 169.5C399 167.567 400.567 166 402.5 166C404.433 166 406 167.567 406 169.5Z" fill="black"/>
  <path d="M453 61C453 58.7909 454.791 57 457 57H482C484.209 57 486 58.7909 486 61V181C486 183.209 484.209 185 482 185H457C454.791 185 453 183.209 453 181V61Z" fill="#FD9406"/>
  <path fill-rule="evenodd" clip-rule="evenodd" d="M459 63V179H480V63H459ZM457 57C454.791 57 453 58.7909 453 61V181C453 183.209 454.791 185 457 185H482C484.209 185 486 183.209 486 181V61C486 58.7909 484.209 57 482 57H457Z" fill="black"/>
  <path d="M561 61C561 58.7909 562.791 57 565 57H590C592.209 57 594 58.7909 594 61V181C594 183.209 592.209 185 590 185H565C562.791 185 561 183.209 561 181V61Z" fill="#FD9406"/>
  <path fill-rule="evenodd" clip-rule="evenodd" d="M567 63V179H588V63H567ZM565 57C562.791 57 561 58.7909 561 61V181C561 183.209 562.791 185 565 185H590C592.209 185 594 183.209 594 181V61C594 58.7909 592.209 57 590 57H565Z" fill="black"/>
  <path d="M473 97.5C473 99.433 471.433 101 469.5 101C467.567 101 466 99.433 466 97.5C466 95.567 467.567 94 469.5 94C471.433 94 473 95.567 473 97.5Z" fill="black"/>
  <path d="M473 115.5C473 117.433 471.433 119 469.5 119C467.567 119 466 117.433 466 115.5C466 113.567 467.567 112 469.5 112C471.433 112 473 113.567 473 115.5Z" fill="black"/>
  <path d="M452 130C449.791 130 448 128.209 448 126V85C448 82.7909 449.791 81 452 81H594C596.209 81 598 82.7909 598 85V126C598 128.209 596.209 130 594 130H452Z" fill="#FD9406"/>
  <path fill-rule="evenodd" clip-rule="evenodd" d="M454 124L592 124V87H454V124ZM448 126C448 128.209 449.791 130 452 130H594C596.209 130 598 128.209 598 126V85C598 82.7909 596.209 81 594 81H452C449.791 81 448 82.7909 448 85V126Z" fill="black"/>
  <path d="M473 97.5C473 99.433 471.433 101 469.5 101C467.567 101 466 99.433 466 97.5C466 95.567 467.567 94 469.5 94C471.433 94 473 95.567 473 97.5Z" fill="black"/>
  <path d="M473 115.5C473 117.433 471.433 119 469.5 119C467.567 119 466 117.433 466 115.5C466 113.567 467.567 112 469.5 112C471.433 112 473 113.567 473 115.5Z" fill="black"/>
  <path d="M581 97.5C581 99.433 579.433 101 577.5 101C575.567 101 574 99.433 574 97.5C574 95.567 575.567 94 577.5 94C579.433 94 581 95.567 581 97.5Z" fill="black"/>
  <path d="M581 115.5C581 117.433 579.433 119 577.5 119C575.567 119 574 117.433 574 115.5C574 113.567 575.567 112 577.5 112C579.433 112 581 113.567 581 115.5Z" fill="black"/>
  <path d="M452 185C449.791 185 448 183.209 448 181V140C448 137.791 449.791 136 452 136H594C596.209 136 598 137.791 598 140V181C598 183.209 596.209 185 594 185H452Z" fill="#FD9406"/>
  <path fill-rule="evenodd" clip-rule="evenodd" d="M454 179H592V142H454V179ZM448 181C448 183.209 449.791 185 452 185H594C596.209 185 598 183.209 598 181V140C598 137.791 596.209 136 594 136H452C449.791 136 448 137.791 448 140V181Z" fill="black"/>
  <path d="M473 152.5C473 154.433 471.433 156 469.5 156C467.567 156 466 154.433 466 152.5C466 150.567 467.567 149 469.5 149C471.433 149 473 150.567 473 152.5Z" fill="black"/>
  <path d="M473 170.5C473 172.433 471.433 174 469.5 174C467.567 174 466 172.433 466 170.5C466 168.567 467.567 167 469.5 167C471.433 167 473 168.567 473 170.5Z" fill="black"/>
  <path d="M581 152.5C581 154.433 579.433 156 577.5 156C575.567 156 574 154.433 574 152.5C574 150.567 575.567 149 577.5 149C579.433 149 581 150.567 581 152.5Z" fill="black"/>
  <path d="M581 170.5C581 172.433 579.433 174 577.5 174C575.567 174 574 172.433 574 170.5C574 168.567 575.567 167 577.5 167C579.433 167 581 168.567 581 170.5Z" fill="black"/>
  <path d="M0.640625 332.998V219.561H24.1016V332.998H0.640625Z" fill="black"/>
  <path d="M67.0531 334.029C60.1781 334.029 54.6996 332.74 50.6176 330.162C46.5355 327.584 43.6137 323.867 41.852 319.012C40.0902 314.156 39.2094 308.312 39.2094 301.48V262.615C39.2094 253.635 41.7875 246.846 46.9437 242.248C52.1 237.607 59.1898 235.287 68.2133 235.287C86.7758 235.287 96.057 244.396 96.057 262.615V269.641C96.057 278.148 95.9711 283.863 95.7992 286.785H62.2836V305.477C62.2836 307.195 62.391 308.893 62.6059 310.568C62.8207 312.201 63.2934 313.555 64.0238 314.629C64.7973 315.703 66.0219 316.24 67.6977 316.24C70.1039 316.24 71.6078 315.209 72.2094 313.146C72.8109 311.041 73.1117 308.312 73.1117 304.961V295.68H96.057V301.158C96.057 308.377 95.1547 314.436 93.35 319.334C91.5883 324.189 88.5805 327.863 84.3266 330.355C80.1156 332.805 74.3578 334.029 67.0531 334.029ZM62.1547 275.312H73.1117V262.293C73.1117 258.812 72.682 256.32 71.8227 254.816C70.9633 253.27 69.6742 252.496 67.9555 252.496C66.1078 252.496 64.6684 253.227 63.6371 254.688C62.6488 256.148 62.1547 258.684 62.1547 262.293V275.312Z" fill="black"/>
  <path d="M137.526 334.029C118.448 334.029 108.909 324.361 108.909 305.025V297.355H132.112V308.699C132.112 310.891 132.542 312.609 133.401 313.855C134.261 315.102 135.636 315.725 137.526 315.725C140.878 315.725 142.554 313.211 142.554 308.184C142.554 303.973 141.673 300.836 139.911 298.773C138.149 296.668 136.001 294.648 133.466 292.715L121.155 283.24C117.288 280.232 114.345 277.053 112.325 273.701C110.305 270.35 109.296 265.688 109.296 259.715C109.296 254.172 110.606 249.596 113.227 245.986C115.891 242.377 119.393 239.691 123.733 237.93C128.116 236.168 132.843 235.287 137.913 235.287C156.647 235.287 166.014 244.633 166.014 263.324V265.129H142.167V261.455C142.167 259.521 141.823 257.652 141.136 255.848C140.491 254.043 139.202 253.141 137.268 253.141C134.003 253.141 132.37 254.859 132.37 258.297C132.37 261.777 133.745 264.506 136.495 266.482L150.804 276.924C155.272 280.146 159.011 283.971 162.018 288.396C165.069 292.822 166.595 298.709 166.595 306.057C166.595 315.166 163.995 322.105 158.796 326.875C153.639 331.645 146.55 334.029 137.526 334.029Z" fill="black"/>
  <path d="M244.377 334.287C234.365 334.287 227.082 331.645 222.527 326.359C217.972 321.074 215.695 313.104 215.695 302.447V290.588H238.962V302.512C238.962 305.52 239.328 308.076 240.058 310.182C240.832 312.244 242.529 313.275 245.15 313.275C247.814 313.275 249.511 312.158 250.242 309.924C250.972 307.646 251.337 303.951 251.337 298.838V296.002C251.337 292.092 250.671 288.676 249.339 285.754C248.05 282.832 245.494 281.371 241.67 281.371C241.197 281.371 240.767 281.393 240.38 281.436C240.037 281.436 239.736 281.457 239.478 281.5V261.133C243.388 261.133 246.375 260.273 248.437 258.555C250.5 256.793 251.531 253.871 251.531 249.789C251.531 243.387 249.683 240.186 245.988 240.186C243.582 240.186 241.949 241.131 241.089 243.021C240.273 244.869 239.865 247.232 239.865 250.111V253.527H216.404C216.361 253.012 216.318 252.389 216.275 251.658C216.275 250.928 216.275 250.219 216.275 249.531C216.275 239.133 218.703 231.506 223.558 226.65C228.414 221.795 235.847 219.367 245.859 219.367C265.195 219.367 274.863 229.422 274.863 249.531C274.863 255.117 274.111 259.736 272.607 263.389C271.103 266.998 268.31 269.533 264.228 270.994C267.451 272.541 269.836 274.518 271.382 276.924C272.929 279.33 273.939 282.316 274.412 285.883C274.884 289.449 275.121 293.768 275.121 298.838C275.121 310.182 272.736 318.926 267.966 325.07C263.24 331.215 255.377 334.287 244.377 334.287Z" fill="black"/>
  <path d="M365.793 334.029C362.012 334.029 358.94 333.105 356.577 331.258C354.213 329.367 352.323 326.51 350.905 322.686V332.998H327.444V219.561H350.905V246.631C352.323 243.064 354.278 240.293 356.77 238.316C359.305 236.297 362.914 235.287 367.598 235.287C373.914 235.287 378.362 237.586 380.94 242.184C383.561 246.781 384.871 252.797 384.871 260.23V307.797C384.871 312.738 384.184 317.207 382.809 321.203C381.477 325.156 379.393 328.293 376.557 330.613C373.764 332.891 370.176 334.029 365.793 334.029ZM356.254 316.047C358.704 316.047 360.186 314.844 360.702 312.438C361.217 310.031 361.475 307.066 361.475 303.543V265.773C361.475 262.207 361.217 259.242 360.702 256.879C360.186 254.473 358.725 253.27 356.319 253.27C353.827 253.27 352.301 254.494 351.743 256.943C351.184 259.35 350.905 262.293 350.905 265.773V303.543C350.905 307.023 351.184 309.988 351.743 312.438C352.301 314.844 353.805 316.047 356.254 316.047Z" fill="black"/>
  <path d="M417.639 334.029C412.268 334.029 408.165 332.783 405.329 330.291C402.536 327.799 400.624 324.383 399.593 320.043C398.561 315.703 398.046 310.783 398.046 305.283C398.046 299.396 398.626 294.584 399.786 290.846C400.946 287.064 402.923 283.971 405.716 281.564C408.552 279.158 412.44 277.117 417.382 275.441L431.69 270.543V260.617C431.69 255.418 429.993 252.818 426.598 252.818C423.505 252.818 421.958 254.924 421.958 259.135V264.936H399.528C399.485 264.592 399.464 264.162 399.464 263.646C399.464 263.088 399.464 262.465 399.464 261.777C399.464 252.152 401.72 245.342 406.231 241.346C410.786 237.307 417.983 235.287 427.823 235.287C432.979 235.287 437.598 236.211 441.68 238.059C445.763 239.863 448.985 242.549 451.348 246.115C453.755 249.682 454.958 254.086 454.958 259.328V332.998H432.013V321.525C430.895 325.564 429.048 328.658 426.47 330.807C423.891 332.955 420.948 334.029 417.639 334.029ZM426.727 316.111C428.618 316.111 429.907 315.316 430.595 313.727C431.282 312.137 431.626 310.418 431.626 308.57V281.629C428.446 282.918 425.975 284.551 424.214 286.527C422.452 288.461 421.571 291.318 421.571 295.1V307.539C421.571 313.254 423.29 316.111 426.727 316.111Z" fill="black"/>
  <path d="M499.521 334.029C488.693 334.029 481.001 331.258 476.446 325.715C471.935 320.172 469.679 312.029 469.679 301.287V271.51C469.679 263.432 470.538 256.707 472.257 251.336C473.976 245.965 476.984 241.947 481.28 239.283C485.577 236.619 491.55 235.287 499.198 235.287C504.527 235.287 509.296 236.232 513.507 238.123C517.761 240.014 521.112 242.785 523.562 246.438C526.011 250.09 527.236 254.559 527.236 259.844V274.604H503.71V261.068C503.71 258.834 503.388 256.965 502.743 255.461C502.099 253.914 500.702 253.141 498.554 253.141C494.773 253.141 492.882 255.826 492.882 261.197V308.055C492.882 310.031 493.312 311.857 494.171 313.533C495.03 315.166 496.448 315.982 498.425 315.982C500.445 315.982 501.841 315.188 502.614 313.598C503.431 311.965 503.839 310.074 503.839 307.926V291.684H527.236V308.57C527.236 313.898 526.032 318.475 523.626 322.299C521.263 326.08 517.997 328.98 513.829 331C509.661 333.02 504.892 334.029 499.521 334.029Z" fill="black"/>
  <path d="M568.382 334.029C549.304 334.029 539.765 324.361 539.765 305.025V297.355H562.968V308.699C562.968 310.891 563.398 312.609 564.257 313.855C565.117 315.102 566.492 315.725 568.382 315.725C571.734 315.725 573.41 313.211 573.41 308.184C573.41 303.973 572.529 300.836 570.767 298.773C569.005 296.668 566.857 294.648 564.322 292.715L552.011 283.24C548.144 280.232 545.201 277.053 543.181 273.701C541.162 270.35 540.152 265.688 540.152 259.715C540.152 254.172 541.463 249.596 544.084 245.986C546.748 242.377 550.25 239.691 554.589 237.93C558.972 236.168 563.699 235.287 568.769 235.287C587.504 235.287 596.871 244.633 596.871 263.324V265.129H573.023V261.455C573.023 259.521 572.679 257.652 571.992 255.848C571.347 254.043 570.058 253.141 568.125 253.141C564.859 253.141 563.226 254.859 563.226 258.297C563.226 261.777 564.601 264.506 567.351 266.482L581.66 276.924C586.129 280.146 589.867 283.971 592.875 288.396C595.925 292.822 597.451 298.709 597.451 306.057C597.451 315.166 594.851 322.105 589.652 326.875C584.496 331.645 577.406 334.029 568.382 334.029Z" fill="black"/>
</svg>
