<svg width="630" height="366" viewBox="0 0 630 366" fill="none" xmlns="http://www.w3.org/2000/svg">
<path d="M0 190C0 180.059 8.05888 172 18 172H612C621.941 172 630 180.059 630 190V348C630 357.941 621.941 366 612 366H18C8.05887 366 0 357.941 0 348V190Z" fill="white"/>
<path d="M21 20C21 17.7909 22.7909 16 25 16H50C52.2091 16 54 17.7909 54 20V197C54 199.209 52.2091 201 50 201H25C22.7909 201 21 199.209 21 197V20Z" fill="#1E91D6"/>
<path fill-rule="evenodd" clip-rule="evenodd" d="M25 0H50C61.0457 0 70 8.95431 70 20V197C70 208.046 61.0457 217 50 217H25C13.9543 217 5 208.046 5 197V20C5 8.95433 13.9543 0 25 0ZM25 16C22.7909 16 21 17.7909 21 20V197C21 199.209 22.7909 201 25 201H50C52.2091 201 54 199.209 54 197V20C54 17.7909 52.2091 16 50 16H25Z" fill="white"/>
<path fill-rule="evenodd" clip-rule="evenodd" d="M27 22V195H48V22H27ZM25 16C22.7909 16 21 17.7909 21 20V197C21 199.209 22.7909 201 25 201H50C52.2091 201 54 199.209 54 197V20C54 17.7909 52.2091 16 50 16H25Z" fill="black"/>
<path fill-rule="evenodd" clip-rule="evenodd" d="M27 195V22H48V195H27ZM5 20C5 8.95433 13.9543 0 25 0H50C61.0457 0 70 8.95431 70 20V197C70 208.046 61.0457 217 50 217H25C13.9543 217 5 208.046 5 197V20ZM21 20C21 17.7909 22.7909 16 25 16H50C52.2091 16 54 17.7909 54 20V197C54 199.209 52.2091 201 50 201H25C22.7909 201 21 199.209 21 197V20Z" fill="white"/>
<path d="M178 20C178 17.7909 179.791 16 182 16H207C209.209 16 211 17.7909 211 20V197C211 199.209 209.209 201 207 201H182C179.791 201 178 199.209 178 197V20Z" fill="#1E91D6"/>
<path fill-rule="evenodd" clip-rule="evenodd" d="M182 0H207C218.046 0 227 8.95431 227 20V197C227 208.046 218.046 217 207 217H182C170.954 217 162 208.046 162 197V20C162 8.95433 170.954 0 182 0ZM182 16C179.791 16 178 17.7909 178 20V197C178 199.209 179.791 201 182 201H207C209.209 201 211 199.209 211 197V20C211 17.7909 209.209 16 207 16H182Z" fill="white"/>
<path fill-rule="evenodd" clip-rule="evenodd" d="M184 22V195H205V22H184ZM182 16C179.791 16 178 17.7909 178 20V197C178 199.209 179.791 201 182 201H207C209.209 201 211 199.209 211 197V20C211 17.7909 209.209 16 207 16H182Z" fill="black"/>
<path fill-rule="evenodd" clip-rule="evenodd" d="M184 195V22H205V195H184ZM162 20C162 8.95433 170.954 0 182 0H207C218.046 0 227 8.95431 227 20V197C227 208.046 218.046 217 207 217H182C170.954 217 162 208.046 162 197V20ZM178 20C178 17.7909 179.791 16 182 16H207C209.209 16 211 17.7909 211 20V197C211 199.209 209.209 201 207 201H182C179.791 201 178 199.209 178 197V20Z" fill="white"/>
<path d="M20 146C17.7909 146 16 144.209 16 142V101C16 98.7909 17.7909 97 20 97H212C214.209 97 216 98.7909 216 101V142C216 144.209 214.209 146 212 146H20Z" fill="#1E91D6"/>
<path fill-rule="evenodd" clip-rule="evenodd" d="M0 142V101C0 89.9543 8.95431 81 20 81H212C223.046 81 232 89.9543 232 101V142C232 153.046 223.046 162 212 162H20C8.95428 162 0 153.046 0 142ZM16 142C16 144.209 17.7909 146 20 146H212C214.209 146 216 144.209 216 142V101C216 98.7909 214.209 97 212 97H20C17.7909 97 16 98.7909 16 101V142Z" fill="white"/>
<path fill-rule="evenodd" clip-rule="evenodd" d="M22 140H210V103H22V140ZM16 142C16 144.209 17.7909 146 20 146H212C214.209 146 216 144.209 216 142V101C216 98.7909 214.209 97 212 97H20C17.7909 97 16 98.7909 16 101V142Z" fill="black"/>
<path fill-rule="evenodd" clip-rule="evenodd" d="M210 140H22V103H210V140ZM38 119H194V124H38V119ZM20 162C8.95428 162 0 153.046 0 142V101C0 89.9543 8.95431 81 20 81H212C223.046 81 232 89.9543 232 101V142C232 153.046 223.046 162 212 162H20ZM20 146C17.7909 146 16 144.209 16 142V101C16 98.7909 17.7909 97 20 97H212C214.209 97 216 98.7909 216 101V142C216 144.209 214.209 146 212 146H20Z" fill="white"/>
<path d="M41 113.5C41 115.433 39.433 117 37.5 117C35.567 117 34 115.433 34 113.5C34 111.567 35.567 110 37.5 110C39.433 110 41 111.567 41 113.5Z" fill="black"/>
<path fill-rule="evenodd" clip-rule="evenodd" d="M37.5 101C30.5964 101 25 106.596 25 113.5C25 120.404 30.5964 126 37.5 126C44.4036 126 50 120.404 50 113.5C50 106.596 44.4036 101 37.5 101ZM57 113.5C57 124.27 48.2696 133 37.5 133C26.7304 133 18 124.27 18 113.5C18 102.73 26.7304 94 37.5 94C48.2696 94 57 102.73 57 113.5Z" fill="white"/>
<path d="M41 131.5C41 133.433 39.433 135 37.5 135C35.567 135 34 133.433 34 131.5C34 129.567 35.567 128 37.5 128C39.433 128 41 129.567 41 131.5Z" fill="black"/>
<path fill-rule="evenodd" clip-rule="evenodd" d="M37.5 119C30.5964 119 25 124.596 25 131.5C25 138.404 30.5964 144 37.5 144C44.4036 144 50 138.404 50 131.5C50 124.596 44.4036 119 37.5 119ZM57 131.5C57 142.27 48.2696 151 37.5 151C26.7304 151 18 142.27 18 131.5C18 120.73 26.7304 112 37.5 112C48.2696 112 57 120.73 57 131.5Z" fill="white"/>
<path d="M198 113.5C198 115.433 196.433 117 194.5 117C192.567 117 191 115.433 191 113.5C191 111.567 192.567 110 194.5 110C196.433 110 198 111.567 198 113.5Z" fill="black"/>
<path fill-rule="evenodd" clip-rule="evenodd" d="M194.5 101C187.596 101 182 106.596 182 113.5C182 120.404 187.596 126 194.5 126C201.404 126 207 120.404 207 113.5C207 106.596 201.404 101 194.5 101ZM214 113.5C214 124.27 205.27 133 194.5 133C183.73 133 175 124.27 175 113.5C175 102.73 183.73 94 194.5 94C205.27 94 214 102.73 214 113.5Z" fill="white"/>
<path d="M198 131.5C198 133.433 196.433 135 194.5 135C192.567 135 191 133.433 191 131.5C191 129.567 192.567 128 194.5 128C196.433 128 198 129.567 198 131.5Z" fill="black"/>
<path fill-rule="evenodd" clip-rule="evenodd" d="M194.5 119C187.596 119 182 124.596 182 131.5C182 138.404 187.596 144 194.5 144C201.404 144 207 138.404 207 131.5C207 124.596 201.404 119 194.5 119ZM214 131.5C214 142.27 205.27 151 194.5 151C183.73 151 175 142.27 175 131.5C175 120.73 183.73 112 194.5 112C205.27 112 214 120.73 214 131.5Z" fill="white"/>
<path d="M20 91C17.7909 91 16 89.2091 16 87V46C16 43.7909 17.7909 42 20 42H212C214.209 42 216 43.7909 216 46V87C216 89.2091 214.209 91 212 91H20Z" fill="#1E91D6"/>
<path fill-rule="evenodd" clip-rule="evenodd" d="M0 87V46C0 34.9543 8.95431 26 20 26H212C223.046 26 232 34.9543 232 46V87C232 98.0457 223.046 107 212 107H20C8.95428 107 0 98.0457 0 87ZM16 87C16 89.2091 17.7909 91 20 91H212C214.209 91 216 89.2091 216 87V46C216 43.7909 214.209 42 212 42H20C17.7909 42 16 43.7909 16 46V87Z" fill="white"/>
<path fill-rule="evenodd" clip-rule="evenodd" d="M22 85H210V48H22V85ZM16 87C16 89.2091 17.7909 91 20 91H212C214.209 91 216 89.2091 216 87V46C216 43.7909 214.209 42 212 42H20C17.7909 42 16 43.7909 16 46V87Z" fill="black"/>
<path fill-rule="evenodd" clip-rule="evenodd" d="M210 85H22V48H210V85ZM38 64H194V69H38V64ZM20 107C8.95428 107 0 98.0457 0 87V46C0 34.9543 8.95431 26 20 26H212C223.046 26 232 34.9543 232 46V87C232 98.0457 223.046 107 212 107H20ZM20 91C17.7909 91 16 89.2091 16 87V46C16 43.7909 17.7909 42 20 42H212C214.209 42 216 43.7909 216 46V87C216 89.2091 214.209 91 212 91H20Z" fill="white"/>
<path d="M41 58.5C41 60.433 39.433 62 37.5 62C35.567 62 34 60.433 34 58.5C34 56.567 35.567 55 37.5 55C39.433 55 41 56.567 41 58.5Z" fill="black"/>
<path fill-rule="evenodd" clip-rule="evenodd" d="M37.5 46C30.5964 46 25 51.5964 25 58.5C25 65.4036 30.5964 71 37.5 71C44.4036 71 50 65.4036 50 58.5C50 51.5964 44.4036 46 37.5 46ZM57 58.5C57 69.2696 48.2696 78 37.5 78C26.7304 78 18 69.2696 18 58.5C18 47.7304 26.7304 39 37.5 39C48.2696 39 57 47.7304 57 58.5Z" fill="white"/>
<path d="M41 76.5C41 78.433 39.433 80 37.5 80C35.567 80 34 78.433 34 76.5C34 74.567 35.567 73 37.5 73C39.433 73 41 74.567 41 76.5Z" fill="black"/>
<path fill-rule="evenodd" clip-rule="evenodd" d="M37.5 64C30.5964 64 25 69.5964 25 76.5C25 83.4036 30.5964 89 37.5 89C44.4036 89 50 83.4036 50 76.5C50 69.5964 44.4036 64 37.5 64ZM57 76.5C57 87.2696 48.2696 96 37.5 96C26.7304 96 18 87.2696 18 76.5C18 65.7304 26.7304 57 37.5 57C48.2696 57 57 65.7304 57 76.5Z" fill="white"/>
<path d="M198 58.5C198 60.433 196.433 62 194.5 62C192.567 62 191 60.433 191 58.5C191 56.567 192.567 55 194.5 55C196.433 55 198 56.567 198 58.5Z" fill="black"/>
<path fill-rule="evenodd" clip-rule="evenodd" d="M194.5 46C187.596 46 182 51.5964 182 58.5C182 65.4036 187.596 71 194.5 71C201.404 71 207 65.4036 207 58.5C207 51.5964 201.404 46 194.5 46ZM214 58.5C214 69.2696 205.27 78 194.5 78C183.73 78 175 69.2696 175 58.5C175 47.7304 183.73 39 194.5 39C205.27 39 214 47.7304 214 58.5Z" fill="white"/>
<path d="M198 76.5C198 78.433 196.433 80 194.5 80C192.567 80 191 78.433 191 76.5C191 74.567 192.567 73 194.5 73C196.433 73 198 74.567 198 76.5Z" fill="black"/>
<path fill-rule="evenodd" clip-rule="evenodd" d="M194.5 64C187.596 64 182 69.5964 182 76.5C182 83.4036 187.596 89 194.5 89C201.404 89 207 83.4036 207 76.5C207 69.5964 201.404 64 194.5 64ZM214 76.5C214 87.2696 205.27 96 194.5 96C183.73 96 175 87.2696 175 76.5C175 65.7304 183.73 57 194.5 57C205.27 57 214 65.7304 214 76.5Z" fill="white"/>
<path d="M20 201C17.7909 201 16 199.209 16 197V156C16 153.791 17.7909 152 20 152H212C214.209 152 216 153.791 216 156V197C216 199.209 214.209 201 212 201H20Z" fill="#1E91D6"/>
<path fill-rule="evenodd" clip-rule="evenodd" d="M0 197V156C0 144.954 8.95431 136 20 136H212C223.046 136 232 144.954 232 156V197C232 208.046 223.046 217 212 217H20C8.95428 217 0 208.046 0 197ZM16 197C16 199.209 17.7909 201 20 201H212C214.209 201 216 199.209 216 197V156C216 153.791 214.209 152 212 152H20C17.7909 152 16 153.791 16 156V197Z" fill="white"/>
<path fill-rule="evenodd" clip-rule="evenodd" d="M22 195H210V158H22V195ZM16 197C16 199.209 17.7909 201 20 201H212C214.209 201 216 199.209 216 197V156C216 153.791 214.209 152 212 152H20C17.7909 152 16 153.791 16 156V197Z" fill="black"/>
<path fill-rule="evenodd" clip-rule="evenodd" d="M210 195H22V158H210V195ZM38 174H194V179H38V174ZM20 217C8.95428 217 0 208.046 0 197V156C0 144.954 8.95431 136 20 136H212C223.046 136 232 144.954 232 156V197C232 208.046 223.046 217 212 217H20ZM20 201C17.7909 201 16 199.209 16 197V156C16 153.791 17.7909 152 20 152H212C214.209 152 216 153.791 216 156V197C216 199.209 214.209 201 212 201H20Z" fill="white"/>
<path d="M41 167.5C41 169.433 39.433 171 37.5 171C35.567 171 34 169.433 34 167.5C34 165.567 35.567 164 37.5 164C39.433 164 41 165.567 41 167.5Z" fill="black"/>
<path fill-rule="evenodd" clip-rule="evenodd" d="M37.5 155C30.5964 155 25 160.596 25 167.5C25 174.404 30.5964 180 37.5 180C44.4036 180 50 174.404 50 167.5C50 160.596 44.4036 155 37.5 155ZM57 167.5C57 178.27 48.2696 187 37.5 187C26.7304 187 18 178.27 18 167.5C18 156.73 26.7304 148 37.5 148C48.2696 148 57 156.73 57 167.5Z" fill="white"/>
<path d="M41 185.5C41 187.433 39.433 189 37.5 189C35.567 189 34 187.433 34 185.5C34 183.567 35.567 182 37.5 182C39.433 182 41 183.567 41 185.5Z" fill="black"/>
<path fill-rule="evenodd" clip-rule="evenodd" d="M37.5 173C30.5964 173 25 178.596 25 185.5C25 192.404 30.5964 198 37.5 198C44.4036 198 50 192.404 50 185.5C50 178.596 44.4036 173 37.5 173ZM57 185.5C57 196.27 48.2696 205 37.5 205C26.7304 205 18 196.27 18 185.5C18 174.73 26.7304 166 37.5 166C48.2696 166 57 174.73 57 185.5Z" fill="white"/>
<path d="M198 167.5C198 169.433 196.433 171 194.5 171C192.567 171 191 169.433 191 167.5C191 165.567 192.567 164 194.5 164C196.433 164 198 165.567 198 167.5Z" fill="black"/>
<path fill-rule="evenodd" clip-rule="evenodd" d="M194.5 155C187.596 155 182 160.596 182 167.5C182 174.404 187.596 180 194.5 180C201.404 180 207 174.404 207 167.5C207 160.596 201.404 155 194.5 155ZM214 167.5C214 178.27 205.27 187 194.5 187C183.73 187 175 178.27 175 167.5C175 156.73 183.73 148 194.5 148C205.27 148 214 156.73 214 167.5Z" fill="white"/>
<path d="M198 185.5C198 187.433 196.433 189 194.5 189C192.567 189 191 187.433 191 185.5C191 183.567 192.567 182 194.5 182C196.433 182 198 183.567 198 185.5Z" fill="black"/>
<path fill-rule="evenodd" clip-rule="evenodd" d="M194.5 173C187.596 173 182 178.596 182 185.5C182 192.404 187.596 198 194.5 198C201.404 198 207 192.404 207 185.5C207 178.596 201.404 173 194.5 173ZM214 185.5C214 196.27 205.27 205 194.5 205C183.73 205 175 196.27 175 185.5C175 174.73 183.73 166 194.5 166C205.27 166 214 174.73 214 185.5Z" fill="white"/>
<path d="M245 20C245 17.7909 246.791 16 249 16H274C276.209 16 278 17.7909 278 20V197C278 199.209 276.209 201 274 201H249C246.791 201 245 199.209 245 197V20Z" fill="#038857"/>
<path fill-rule="evenodd" clip-rule="evenodd" d="M249 0H274C285.046 0 294 8.95431 294 20V197C294 208.046 285.046 217 274 217H249C237.954 217 229 208.046 229 197V20C229 8.95433 237.954 0 249 0ZM249 16C246.791 16 245 17.7909 245 20V197C245 199.209 246.791 201 249 201H274C276.209 201 278 199.209 278 197V20C278 17.7909 276.209 16 274 16H249Z" fill="white"/>
<path fill-rule="evenodd" clip-rule="evenodd" d="M251 22V195H272V22H251ZM249 16C246.791 16 245 17.7909 245 20V197C245 199.209 246.791 201 249 201H274C276.209 201 278 199.209 278 197V20C278 17.7909 276.209 16 274 16H249Z" fill="black"/>
<path fill-rule="evenodd" clip-rule="evenodd" d="M251 195V22H272V195H251ZM229 20C229 8.95433 237.954 0 249 0H274C285.046 0 294 8.95431 294 20V197C294 208.046 285.046 217 274 217H249C237.954 217 229 208.046 229 197V20ZM245 20C245 17.7909 246.791 16 249 16H274C276.209 16 278 17.7909 278 20V197C278 199.209 276.209 201 274 201H249C246.791 201 245 199.209 245 197V20Z" fill="white"/>
<path d="M402 20C402 17.7909 403.791 16 406 16H431C433.209 16 435 17.7909 435 20V197C435 199.209 433.209 201 431 201H406C403.791 201 402 199.209 402 197V20Z" fill="#038857"/>
<path fill-rule="evenodd" clip-rule="evenodd" d="M406 0H431C442.046 0 451 8.95431 451 20V197C451 208.046 442.046 217 431 217H406C394.954 217 386 208.046 386 197V20C386 8.95433 394.954 0 406 0ZM406 16C403.791 16 402 17.7909 402 20V197C402 199.209 403.791 201 406 201H431C433.209 201 435 199.209 435 197V20C435 17.7909 433.209 16 431 16H406Z" fill="white"/>
<path fill-rule="evenodd" clip-rule="evenodd" d="M408 22V195H429V22H408ZM406 16C403.791 16 402 17.7909 402 20V197C402 199.209 403.791 201 406 201H431C433.209 201 435 199.209 435 197V20C435 17.7909 433.209 16 431 16H406Z" fill="black"/>
<path fill-rule="evenodd" clip-rule="evenodd" d="M408 195V22H429V195H408ZM386 20C386 8.95433 394.954 0 406 0H431C442.046 0 451 8.95431 451 20V197C451 208.046 442.046 217 431 217H406C394.954 217 386 208.046 386 197V20ZM402 20C402 17.7909 403.791 16 406 16H431C433.209 16 435 17.7909 435 20V197C435 199.209 433.209 201 431 201H406C403.791 201 402 199.209 402 197V20Z" fill="white"/>
<path d="M244 146C241.791 146 240 144.209 240 142V101C240 98.7909 241.791 97 244 97H436C438.209 97 440 98.7909 440 101V142C440 144.209 438.209 146 436 146H244Z" fill="#038857"/>
<path fill-rule="evenodd" clip-rule="evenodd" d="M224 142V101C224 89.9543 232.954 81 244 81H436C447.046 81 456 89.9543 456 101V142C456 153.046 447.046 162 436 162H244C232.954 162 224 153.046 224 142ZM240 142C240 144.209 241.791 146 244 146H436C438.209 146 440 144.209 440 142V101C440 98.7909 438.209 97 436 97H244C241.791 97 240 98.7909 240 101V142Z" fill="white"/>
<path fill-rule="evenodd" clip-rule="evenodd" d="M246 140H434V103H246V140ZM240 142C240 144.209 241.791 146 244 146H436C438.209 146 440 144.209 440 142V101C440 98.7909 438.209 97 436 97H244C241.791 97 240 98.7909 240 101V142Z" fill="black"/>
<path fill-rule="evenodd" clip-rule="evenodd" d="M434 140H246V103H434V140ZM262 119H418V124H262V119ZM244 162C232.954 162 224 153.046 224 142V101C224 89.9543 232.954 81 244 81H436C447.046 81 456 89.9543 456 101V142C456 153.046 447.046 162 436 162H244ZM244 146C241.791 146 240 144.209 240 142V101C240 98.7909 241.791 97 244 97H436C438.209 97 440 98.7909 440 101V142C440 144.209 438.209 146 436 146H244Z" fill="white"/>
<path d="M265 113.5C265 115.433 263.433 117 261.5 117C259.567 117 258 115.433 258 113.5C258 111.567 259.567 110 261.5 110C263.433 110 265 111.567 265 113.5Z" fill="black"/>
<path fill-rule="evenodd" clip-rule="evenodd" d="M261.5 101C254.596 101 249 106.596 249 113.5C249 120.404 254.596 126 261.5 126C268.404 126 274 120.404 274 113.5C274 106.596 268.404 101 261.5 101ZM281 113.5C281 124.27 272.27 133 261.5 133C250.73 133 242 124.27 242 113.5C242 102.73 250.73 94 261.5 94C272.27 94 281 102.73 281 113.5Z" fill="white"/>
<path d="M265 131.5C265 133.433 263.433 135 261.5 135C259.567 135 258 133.433 258 131.5C258 129.567 259.567 128 261.5 128C263.433 128 265 129.567 265 131.5Z" fill="black"/>
<path fill-rule="evenodd" clip-rule="evenodd" d="M261.5 119C254.596 119 249 124.596 249 131.5C249 138.404 254.596 144 261.5 144C268.404 144 274 138.404 274 131.5C274 124.596 268.404 119 261.5 119ZM281 131.5C281 142.27 272.27 151 261.5 151C250.73 151 242 142.27 242 131.5C242 120.73 250.73 112 261.5 112C272.27 112 281 120.73 281 131.5Z" fill="white"/>
<path d="M422 113.5C422 115.433 420.433 117 418.5 117C416.567 117 415 115.433 415 113.5C415 111.567 416.567 110 418.5 110C420.433 110 422 111.567 422 113.5Z" fill="black"/>
<path fill-rule="evenodd" clip-rule="evenodd" d="M418.5 101C411.596 101 406 106.596 406 113.5C406 120.404 411.596 126 418.5 126C425.404 126 431 120.404 431 113.5C431 106.596 425.404 101 418.5 101ZM438 113.5C438 124.27 429.27 133 418.5 133C407.73 133 399 124.27 399 113.5C399 102.73 407.73 94 418.5 94C429.27 94 438 102.73 438 113.5Z" fill="white"/>
<path d="M422 131.5C422 133.433 420.433 135 418.5 135C416.567 135 415 133.433 415 131.5C415 129.567 416.567 128 418.5 128C420.433 128 422 129.567 422 131.5Z" fill="black"/>
<path fill-rule="evenodd" clip-rule="evenodd" d="M418.5 119C411.596 119 406 124.596 406 131.5C406 138.404 411.596 144 418.5 144C425.404 144 431 138.404 431 131.5C431 124.596 425.404 119 418.5 119ZM438 131.5C438 142.27 429.27 151 418.5 151C407.73 151 399 142.27 399 131.5C399 120.73 407.73 112 418.5 112C429.27 112 438 120.73 438 131.5Z" fill="white"/>
<path d="M244 91C241.791 91 240 89.2091 240 87V46C240 43.7909 241.791 42 244 42H436C438.209 42 440 43.7909 440 46V87C440 89.2091 438.209 91 436 91H244Z" fill="#038857"/>
<path fill-rule="evenodd" clip-rule="evenodd" d="M224 87V46C224 34.9543 232.954 26 244 26H436C447.046 26 456 34.9543 456 46V87C456 98.0457 447.046 107 436 107H244C232.954 107 224 98.0457 224 87ZM240 87C240 89.2091 241.791 91 244 91H436C438.209 91 440 89.2091 440 87V46C440 43.7909 438.209 42 436 42H244C241.791 42 240 43.7909 240 46V87Z" fill="white"/>
<path fill-rule="evenodd" clip-rule="evenodd" d="M246 85H434V48H246V85ZM240 87C240 89.2091 241.791 91 244 91H436C438.209 91 440 89.2091 440 87V46C440 43.7909 438.209 42 436 42H244C241.791 42 240 43.7909 240 46V87Z" fill="black"/>
<path fill-rule="evenodd" clip-rule="evenodd" d="M434 85H246V48H434V85ZM262 64H418V69H262V64ZM244 107C232.954 107 224 98.0457 224 87V46C224 34.9543 232.954 26 244 26H436C447.046 26 456 34.9543 456 46V87C456 98.0457 447.046 107 436 107H244ZM244 91C241.791 91 240 89.2091 240 87V46C240 43.7909 241.791 42 244 42H436C438.209 42 440 43.7909 440 46V87C440 89.2091 438.209 91 436 91H244Z" fill="white"/>
<path d="M244 91C241.791 91 240 89.2091 240 87V46C240 43.7909 241.791 42 244 42H436C438.209 42 440 43.7909 440 46V87C440 89.2091 438.209 91 436 91H244Z" fill="#038857"/>
<path fill-rule="evenodd" clip-rule="evenodd" d="M224 87V46C224 34.9543 232.954 26 244 26H436C447.046 26 456 34.9543 456 46V87C456 98.0457 447.046 107 436 107H244C232.954 107 224 98.0457 224 87ZM240 87C240 89.2091 241.791 91 244 91H436C438.209 91 440 89.2091 440 87V46C440 43.7909 438.209 42 436 42H244C241.791 42 240 43.7909 240 46V87Z" fill="white"/>
<path fill-rule="evenodd" clip-rule="evenodd" d="M246 85H434V48H246V85ZM240 87C240 89.2091 241.791 91 244 91H436C438.209 91 440 89.2091 440 87V46C440 43.7909 438.209 42 436 42H244C241.791 42 240 43.7909 240 46V87Z" fill="black"/>
<path fill-rule="evenodd" clip-rule="evenodd" d="M434 85H246V48H434V85ZM262 64H418V69H262V64ZM244 107C232.954 107 224 98.0457 224 87V46C224 34.9543 232.954 26 244 26H436C447.046 26 456 34.9543 456 46V87C456 98.0457 447.046 107 436 107H244ZM244 91C241.791 91 240 89.2091 240 87V46C240 43.7909 241.791 42 244 42H436C438.209 42 440 43.7909 440 46V87C440 89.2091 438.209 91 436 91H244Z" fill="white"/>
<path d="M265 58.5C265 60.433 263.433 62 261.5 62C259.567 62 258 60.433 258 58.5C258 56.567 259.567 55 261.5 55C263.433 55 265 56.567 265 58.5Z" fill="black"/>
<path fill-rule="evenodd" clip-rule="evenodd" d="M261.5 46C254.596 46 249 51.5964 249 58.5C249 65.4036 254.596 71 261.5 71C268.404 71 274 65.4036 274 58.5C274 51.5964 268.404 46 261.5 46ZM281 58.5C281 69.2696 272.27 78 261.5 78C250.73 78 242 69.2696 242 58.5C242 47.7304 250.73 39 261.5 39C272.27 39 281 47.7304 281 58.5Z" fill="white"/>
<path d="M265 76.5C265 78.433 263.433 80 261.5 80C259.567 80 258 78.433 258 76.5C258 74.567 259.567 73 261.5 73C263.433 73 265 74.567 265 76.5Z" fill="black"/>
<path fill-rule="evenodd" clip-rule="evenodd" d="M261.5 64C254.596 64 249 69.5964 249 76.5C249 83.4036 254.596 89 261.5 89C268.404 89 274 83.4036 274 76.5C274 69.5964 268.404 64 261.5 64ZM281 76.5C281 87.2696 272.27 96 261.5 96C250.73 96 242 87.2696 242 76.5C242 65.7304 250.73 57 261.5 57C272.27 57 281 65.7304 281 76.5Z" fill="white"/>
<path d="M422 58.5C422 60.433 420.433 62 418.5 62C416.567 62 415 60.433 415 58.5C415 56.567 416.567 55 418.5 55C420.433 55 422 56.567 422 58.5Z" fill="black"/>
<path fill-rule="evenodd" clip-rule="evenodd" d="M418.5 46C411.596 46 406 51.5964 406 58.5C406 65.4036 411.596 71 418.5 71C425.404 71 431 65.4036 431 58.5C431 51.5964 425.404 46 418.5 46ZM438 58.5C438 69.2696 429.27 78 418.5 78C407.73 78 399 69.2696 399 58.5C399 47.7304 407.73 39 418.5 39C429.27 39 438 47.7304 438 58.5Z" fill="white"/>
<path d="M422 76.5C422 78.433 420.433 80 418.5 80C416.567 80 415 78.433 415 76.5C415 74.567 416.567 73 418.5 73C420.433 73 422 74.567 422 76.5Z" fill="black"/>
<path fill-rule="evenodd" clip-rule="evenodd" d="M418.5 64C411.596 64 406 69.5964 406 76.5C406 83.4036 411.596 89 418.5 89C425.404 89 431 83.4036 431 76.5C431 69.5964 425.404 64 418.5 64ZM438 76.5C438 87.2696 429.27 96 418.5 96C407.73 96 399 87.2696 399 76.5C399 65.7304 407.73 57 418.5 57C429.27 57 438 65.7304 438 76.5Z" fill="white"/>
<path d="M244 201C241.791 201 240 199.209 240 197V156C240 153.791 241.791 152 244 152H436C438.209 152 440 153.791 440 156V197C440 199.209 438.209 201 436 201H244Z" fill="#038857"/>
<path fill-rule="evenodd" clip-rule="evenodd" d="M224 197V156C224 144.954 232.954 136 244 136H436C447.046 136 456 144.954 456 156V197C456 208.046 447.046 217 436 217H244C232.954 217 224 208.046 224 197ZM240 197C240 199.209 241.791 201 244 201H436C438.209 201 440 199.209 440 197V156C440 153.791 438.209 152 436 152H244C241.791 152 240 153.791 240 156V197Z" fill="white"/>
<path fill-rule="evenodd" clip-rule="evenodd" d="M246 195H434V158H246V195ZM240 197C240 199.209 241.791 201 244 201H436C438.209 201 440 199.209 440 197V156C440 153.791 438.209 152 436 152H244C241.791 152 240 153.791 240 156V197Z" fill="black"/>
<path fill-rule="evenodd" clip-rule="evenodd" d="M434 195H246V158H434V195ZM262 174H418V179H262V174ZM244 217C232.954 217 224 208.046 224 197V156C224 144.954 232.954 136 244 136H436C447.046 136 456 144.954 456 156V197C456 208.046 447.046 217 436 217H244ZM244 201C241.791 201 240 199.209 240 197V156C240 153.791 241.791 152 244 152H436C438.209 152 440 153.791 440 156V197C440 199.209 438.209 201 436 201H244Z" fill="white"/>
<path d="M265 167.5C265 169.433 263.433 171 261.5 171C259.567 171 258 169.433 258 167.5C258 165.567 259.567 164 261.5 164C263.433 164 265 165.567 265 167.5Z" fill="black"/>
<path fill-rule="evenodd" clip-rule="evenodd" d="M261.5 155C254.596 155 249 160.596 249 167.5C249 174.404 254.596 180 261.5 180C268.404 180 274 174.404 274 167.5C274 160.596 268.404 155 261.5 155ZM281 167.5C281 178.27 272.27 187 261.5 187C250.73 187 242 178.27 242 167.5C242 156.73 250.73 148 261.5 148C272.27 148 281 156.73 281 167.5Z" fill="white"/>
<path d="M265 185.5C265 187.433 263.433 189 261.5 189C259.567 189 258 187.433 258 185.5C258 183.567 259.567 182 261.5 182C263.433 182 265 183.567 265 185.5Z" fill="black"/>
<path fill-rule="evenodd" clip-rule="evenodd" d="M261.5 173C254.596 173 249 178.596 249 185.5C249 192.404 254.596 198 261.5 198C268.404 198 274 192.404 274 185.5C274 178.596 268.404 173 261.5 173ZM281 185.5C281 196.27 272.27 205 261.5 205C250.73 205 242 196.27 242 185.5C242 174.73 250.73 166 261.5 166C272.27 166 281 174.73 281 185.5Z" fill="white"/>
<path d="M422 167.5C422 169.433 420.433 171 418.5 171C416.567 171 415 169.433 415 167.5C415 165.567 416.567 164 418.5 164C420.433 164 422 165.567 422 167.5Z" fill="black"/>
<path fill-rule="evenodd" clip-rule="evenodd" d="M418.5 155C411.596 155 406 160.596 406 167.5C406 174.404 411.596 180 418.5 180C425.404 180 431 174.404 431 167.5C431 160.596 425.404 155 418.5 155ZM438 167.5C438 178.27 429.27 187 418.5 187C407.73 187 399 178.27 399 167.5C399 156.73 407.73 148 418.5 148C429.27 148 438 156.73 438 167.5Z" fill="white"/>
<path d="M422 185.5C422 187.433 420.433 189 418.5 189C416.567 189 415 187.433 415 185.5C415 183.567 416.567 182 418.5 182C420.433 182 422 183.567 422 185.5Z" fill="black"/>
<path fill-rule="evenodd" clip-rule="evenodd" d="M418.5 173C411.596 173 406 178.596 406 185.5C406 192.404 411.596 198 418.5 198C425.404 198 431 192.404 431 185.5C431 178.596 425.404 173 418.5 173ZM438 185.5C438 196.27 429.27 205 418.5 205C407.73 205 399 196.27 399 185.5C399 174.73 407.73 166 418.5 166C429.27 166 438 174.73 438 185.5Z" fill="white"/>
<path d="M469 77C469 74.7909 470.791 73 473 73H498C500.209 73 502 74.7909 502 77V197C502 199.209 500.209 201 498 201H473C470.791 201 469 199.209 469 197V77Z" fill="#FD9406"/>
<path fill-rule="evenodd" clip-rule="evenodd" d="M473 57H498C509.046 57 518 65.9543 518 77V197C518 208.046 509.046 217 498 217H473C461.954 217 453 208.046 453 197V77C453 65.9543 461.954 57 473 57ZM473 73C470.791 73 469 74.7909 469 77V197C469 199.209 470.791 201 473 201H498C500.209 201 502 199.209 502 197V77C502 74.7909 500.209 73 498 73H473Z" fill="white"/>
<path fill-rule="evenodd" clip-rule="evenodd" d="M475 79V195H496V79H475ZM473 73C470.791 73 469 74.7909 469 77V197C469 199.209 470.791 201 473 201H498C500.209 201 502 199.209 502 197V77C502 74.7909 500.209 73 498 73H473Z" fill="black"/>
<path fill-rule="evenodd" clip-rule="evenodd" d="M475 195V79H496V195H475ZM453 77C453 65.9543 461.954 57 473 57H498C509.046 57 518 65.9543 518 77V197C518 208.046 509.046 217 498 217H473C461.954 217 453 208.046 453 197V77ZM469 77C469 74.7909 470.791 73 473 73H498C500.209 73 502 74.7909 502 77V197C502 199.209 500.209 201 498 201H473C470.791 201 469 199.209 469 197V77Z" fill="white"/>
<path d="M577 77C577 74.7909 578.791 73 581 73H606C608.209 73 610 74.7909 610 77V197C610 199.209 608.209 201 606 201H581C578.791 201 577 199.209 577 197V77Z" fill="#FD9406"/>
<path fill-rule="evenodd" clip-rule="evenodd" d="M581 57H606C617.046 57 626 65.9543 626 77V197C626 208.046 617.046 217 606 217H581C569.954 217 561 208.046 561 197V77C561 65.9543 569.954 57 581 57ZM581 73C578.791 73 577 74.7909 577 77V197C577 199.209 578.791 201 581 201H606C608.209 201 610 199.209 610 197V77C610 74.7909 608.209 73 606 73H581Z" fill="white"/>
<path fill-rule="evenodd" clip-rule="evenodd" d="M583 79V195H604V79H583ZM581 73C578.791 73 577 74.7909 577 77V197C577 199.209 578.791 201 581 201H606C608.209 201 610 199.209 610 197V77C610 74.7909 608.209 73 606 73H581Z" fill="black"/>
<path fill-rule="evenodd" clip-rule="evenodd" d="M583 195V79H604V195H583ZM561 77C561 65.9543 569.954 57 581 57H606C617.046 57 626 65.9543 626 77V197C626 208.046 617.046 217 606 217H581C569.954 217 561 208.046 561 197V77ZM577 77C577 74.7909 578.791 73 581 73H606C608.209 73 610 74.7909 610 77V197C610 199.209 608.209 201 606 201H581C578.791 201 577 199.209 577 197V77Z" fill="white"/>
<path d="M489 113.5C489 115.433 487.433 117 485.5 117C483.567 117 482 115.433 482 113.5C482 111.567 483.567 110 485.5 110C487.433 110 489 111.567 489 113.5Z" fill="black"/>
<path fill-rule="evenodd" clip-rule="evenodd" d="M485.5 101C478.596 101 473 106.596 473 113.5C473 120.404 478.596 126 485.5 126C492.404 126 498 120.404 498 113.5C498 106.596 492.404 101 485.5 101ZM505 113.5C505 124.27 496.27 133 485.5 133C474.73 133 466 124.27 466 113.5C466 102.73 474.73 94 485.5 94C496.27 94 505 102.73 505 113.5Z" fill="white"/>
<path d="M489 131.5C489 133.433 487.433 135 485.5 135C483.567 135 482 133.433 482 131.5C482 129.567 483.567 128 485.5 128C487.433 128 489 129.567 489 131.5Z" fill="black"/>
<path fill-rule="evenodd" clip-rule="evenodd" d="M485.5 119C478.596 119 473 124.596 473 131.5C473 138.404 478.596 144 485.5 144C492.404 144 498 138.404 498 131.5C498 124.596 492.404 119 485.5 119ZM505 131.5C505 142.27 496.27 151 485.5 151C474.73 151 466 142.27 466 131.5C466 120.73 474.73 112 485.5 112C496.27 112 505 120.73 505 131.5Z" fill="white"/>
<path d="M468 146C465.791 146 464 144.209 464 142V101C464 98.7909 465.791 97 468 97H610C612.209 97 614 98.7909 614 101V142C614 144.209 612.209 146 610 146H468Z" fill="#FD9406"/>
<path fill-rule="evenodd" clip-rule="evenodd" d="M448 142V101C448 89.9543 456.954 81 468 81H610C621.046 81 630 89.9543 630 101V142C630 153.046 621.046 162 610 162H468C456.954 162 448 153.046 448 142ZM464 142C464 144.209 465.791 146 468 146H610C612.209 146 614 144.209 614 142V101C614 98.7909 612.209 97 610 97H468C465.791 97 464 98.7909 464 101V142Z" fill="white"/>
<path fill-rule="evenodd" clip-rule="evenodd" d="M470 140H608V103H470V140ZM464 142C464 144.209 465.791 146 468 146H610C612.209 146 614 144.209 614 142V101C614 98.7909 612.209 97 610 97H468C465.791 97 464 98.7909 464 101V142Z" fill="black"/>
<path fill-rule="evenodd" clip-rule="evenodd" d="M608 140H470V103H608V140ZM486 119H592V124H486V119ZM468 162C456.954 162 448 153.046 448 142V101C448 89.9543 456.954 81 468 81H610C621.046 81 630 89.9543 630 101V142C630 153.046 621.046 162 610 162H468ZM468 146C465.791 146 464 144.209 464 142V101C464 98.7909 465.791 97 468 97H610C612.209 97 614 98.7909 614 101V142C614 144.209 612.209 146 610 146H468Z" fill="white"/>
<path d="M489 113.5C489 115.433 487.433 117 485.5 117C483.567 117 482 115.433 482 113.5C482 111.567 483.567 110 485.5 110C487.433 110 489 111.567 489 113.5Z" fill="black"/>
<path fill-rule="evenodd" clip-rule="evenodd" d="M485.5 101C478.596 101 473 106.596 473 113.5C473 120.404 478.596 126 485.5 126C492.404 126 498 120.404 498 113.5C498 106.596 492.404 101 485.5 101ZM505 113.5C505 124.27 496.27 133 485.5 133C474.73 133 466 124.27 466 113.5C466 102.73 474.73 94 485.5 94C496.27 94 505 102.73 505 113.5Z" fill="white"/>
<path d="M489 131.5C489 133.433 487.433 135 485.5 135C483.567 135 482 133.433 482 131.5C482 129.567 483.567 128 485.5 128C487.433 128 489 129.567 489 131.5Z" fill="black"/>
<path fill-rule="evenodd" clip-rule="evenodd" d="M485.5 119C478.596 119 473 124.596 473 131.5C473 138.404 478.596 144 485.5 144C492.404 144 498 138.404 498 131.5C498 124.596 492.404 119 485.5 119ZM505 131.5C505 142.27 496.27 151 485.5 151C474.73 151 466 142.27 466 131.5C466 120.73 474.73 112 485.5 112C496.27 112 505 120.73 505 131.5Z" fill="white"/>
<path d="M597 113.5C597 115.433 595.433 117 593.5 117C591.567 117 590 115.433 590 113.5C590 111.567 591.567 110 593.5 110C595.433 110 597 111.567 597 113.5Z" fill="black"/>
<path fill-rule="evenodd" clip-rule="evenodd" d="M593.5 101C586.596 101 581 106.596 581 113.5C581 120.404 586.596 126 593.5 126C600.404 126 606 120.404 606 113.5C606 106.596 600.404 101 593.5 101ZM613 113.5C613 124.27 604.27 133 593.5 133C582.73 133 574 124.27 574 113.5C574 102.73 582.73 94 593.5 94C604.27 94 613 102.73 613 113.5Z" fill="white"/>
<path d="M597 131.5C597 133.433 595.433 135 593.5 135C591.567 135 590 133.433 590 131.5C590 129.567 591.567 128 593.5 128C595.433 128 597 129.567 597 131.5Z" fill="black"/>
<path fill-rule="evenodd" clip-rule="evenodd" d="M593.5 119C586.596 119 581 124.596 581 131.5C581 138.404 586.596 144 593.5 144C600.404 144 606 138.404 606 131.5C606 124.596 600.404 119 593.5 119ZM613 131.5C613 142.27 604.27 151 593.5 151C582.73 151 574 142.27 574 131.5C574 120.73 582.73 112 593.5 112C604.27 112 613 120.73 613 131.5Z" fill="white"/>
<path d="M468 201C465.791 201 464 199.209 464 197V156C464 153.791 465.791 152 468 152H610C612.209 152 614 153.791 614 156V197C614 199.209 612.209 201 610 201H468Z" fill="#FD9406"/>
<path fill-rule="evenodd" clip-rule="evenodd" d="M448 197V156C448 144.954 456.954 136 468 136H610C621.046 136 630 144.954 630 156V197C630 208.046 621.046 217 610 217H468C456.954 217 448 208.046 448 197ZM464 197C464 199.209 465.791 201 468 201H610C612.209 201 614 199.209 614 197V156C614 153.791 612.209 152 610 152H468C465.791 152 464 153.791 464 156V197Z" fill="white"/>
<path fill-rule="evenodd" clip-rule="evenodd" d="M470 195H608V158H470V195ZM464 197C464 199.209 465.791 201 468 201H610C612.209 201 614 199.209 614 197V156C614 153.791 612.209 152 610 152H468C465.791 152 464 153.791 464 156V197Z" fill="black"/>
<path fill-rule="evenodd" clip-rule="evenodd" d="M608 195H470V158H608V195ZM486 174H592V179H486V174ZM468 217C456.954 217 448 208.046 448 197V156C448 144.954 456.954 136 468 136H610C621.046 136 630 144.954 630 156V197C630 208.046 621.046 217 610 217H468ZM468 201C465.791 201 464 199.209 464 197V156C464 153.791 465.791 152 468 152H610C612.209 152 614 153.791 614 156V197C614 199.209 612.209 201 610 201H468Z" fill="white"/>
<path d="M489 168.5C489 170.433 487.433 172 485.5 172C483.567 172 482 170.433 482 168.5C482 166.567 483.567 165 485.5 165C487.433 165 489 166.567 489 168.5Z" fill="black"/>
<path fill-rule="evenodd" clip-rule="evenodd" d="M485.5 156C478.596 156 473 161.596 473 168.5C473 175.404 478.596 181 485.5 181C492.404 181 498 175.404 498 168.5C498 161.596 492.404 156 485.5 156ZM505 168.5C505 179.27 496.27 188 485.5 188C474.73 188 466 179.27 466 168.5C466 157.73 474.73 149 485.5 149C496.27 149 505 157.73 505 168.5Z" fill="white"/>
<path d="M489 186.5C489 188.433 487.433 190 485.5 190C483.567 190 482 188.433 482 186.5C482 184.567 483.567 183 485.5 183C487.433 183 489 184.567 489 186.5Z" fill="black"/>
<path fill-rule="evenodd" clip-rule="evenodd" d="M485.5 174C478.596 174 473 179.596 473 186.5C473 193.404 478.596 199 485.5 199C492.404 199 498 193.404 498 186.5C498 179.596 492.404 174 485.5 174ZM505 186.5C505 197.27 496.27 206 485.5 206C474.73 206 466 197.27 466 186.5C466 175.73 474.73 167 485.5 167C496.27 167 505 175.73 505 186.5Z" fill="white"/>
<path d="M597 168.5C597 170.433 595.433 172 593.5 172C591.567 172 590 170.433 590 168.5C590 166.567 591.567 165 593.5 165C595.433 165 597 166.567 597 168.5Z" fill="black"/>
<path fill-rule="evenodd" clip-rule="evenodd" d="M593.5 156C586.596 156 581 161.596 581 168.5C581 175.404 586.596 181 593.5 181C600.404 181 606 175.404 606 168.5C606 161.596 600.404 156 593.5 156ZM613 168.5C613 179.27 604.27 188 593.5 188C582.73 188 574 179.27 574 168.5C574 157.73 582.73 149 593.5 149C604.27 149 613 157.73 613 168.5Z" fill="white"/>
<path d="M597 186.5C597 188.433 595.433 190 593.5 190C591.567 190 590 188.433 590 186.5C590 184.567 591.567 183 593.5 183C595.433 183 597 184.567 597 186.5Z" fill="black"/>
<path fill-rule="evenodd" clip-rule="evenodd" d="M593.5 174C586.596 174 581 179.596 581 186.5C581 193.404 586.596 199 593.5 199C600.404 199 606 193.404 606 186.5C606 179.596 600.404 174 593.5 174ZM613 186.5C613 197.27 604.27 206 593.5 206C582.73 206 574 197.27 574 186.5C574 175.73 582.73 167 593.5 167C604.27 167 613 175.73 613 186.5Z" fill="white"/>
<path d="M21 20C21 17.7909 22.7909 16 25 16H50C52.2091 16 54 17.7909 54 20V197C54 199.209 52.2091 201 50 201H25C22.7909 201 21 199.209 21 197V20Z" fill="#1E91D6"/>
<path fill-rule="evenodd" clip-rule="evenodd" d="M27 22V195H48V22H27ZM25 16C22.7909 16 21 17.7909 21 20V197C21 199.209 22.7909 201 25 201H50C52.2091 201 54 199.209 54 197V20C54 17.7909 52.2091 16 50 16H25Z" fill="black"/>
<path d="M178 20C178 17.7909 179.791 16 182 16H207C209.209 16 211 17.7909 211 20V197C211 199.209 209.209 201 207 201H182C179.791 201 178 199.209 178 197V20Z" fill="#1E91D6"/>
<path fill-rule="evenodd" clip-rule="evenodd" d="M184 22V195H205V22H184ZM182 16C179.791 16 178 17.7909 178 20V197C178 199.209 179.791 201 182 201H207C209.209 201 211 199.209 211 197V20C211 17.7909 209.209 16 207 16H182Z" fill="black"/>
<path d="M20 146C17.7909 146 16 144.209 16 142V101C16 98.7909 17.7909 97 20 97H212C214.209 97 216 98.7909 216 101V142C216 144.209 214.209 146 212 146H20Z" fill="#1E91D6"/>
<path fill-rule="evenodd" clip-rule="evenodd" d="M22 140H210V103H22V140ZM16 142C16 144.209 17.7909 146 20 146H212C214.209 146 216 144.209 216 142V101C216 98.7909 214.209 97 212 97H20C17.7909 97 16 98.7909 16 101V142Z" fill="black"/>
<path d="M41 113.5C41 115.433 39.433 117 37.5 117C35.567 117 34 115.433 34 113.5C34 111.567 35.567 110 37.5 110C39.433 110 41 111.567 41 113.5Z" fill="black"/>
<path d="M41 131.5C41 133.433 39.433 135 37.5 135C35.567 135 34 133.433 34 131.5C34 129.567 35.567 128 37.5 128C39.433 128 41 129.567 41 131.5Z" fill="black"/>
<path d="M198 113.5C198 115.433 196.433 117 194.5 117C192.567 117 191 115.433 191 113.5C191 111.567 192.567 110 194.5 110C196.433 110 198 111.567 198 113.5Z" fill="black"/>
<path d="M198 131.5C198 133.433 196.433 135 194.5 135C192.567 135 191 133.433 191 131.5C191 129.567 192.567 128 194.5 128C196.433 128 198 129.567 198 131.5Z" fill="black"/>
<path d="M20 91C17.7909 91 16 89.2091 16 87V46C16 43.7909 17.7909 42 20 42H212C214.209 42 216 43.7909 216 46V87C216 89.2091 214.209 91 212 91H20Z" fill="#1E91D6"/>
<path fill-rule="evenodd" clip-rule="evenodd" d="M22 85H210V48H22V85ZM16 87C16 89.2091 17.7909 91 20 91H212C214.209 91 216 89.2091 216 87V46C216 43.7909 214.209 42 212 42H20C17.7909 42 16 43.7909 16 46V87Z" fill="black"/>
<path d="M41 58.5C41 60.433 39.433 62 37.5 62C35.567 62 34 60.433 34 58.5C34 56.567 35.567 55 37.5 55C39.433 55 41 56.567 41 58.5Z" fill="black"/>
<path d="M41 76.5C41 78.433 39.433 80 37.5 80C35.567 80 34 78.433 34 76.5C34 74.567 35.567 73 37.5 73C39.433 73 41 74.567 41 76.5Z" fill="black"/>
<path d="M198 58.5C198 60.433 196.433 62 194.5 62C192.567 62 191 60.433 191 58.5C191 56.567 192.567 55 194.5 55C196.433 55 198 56.567 198 58.5Z" fill="black"/>
<path d="M198 76.5C198 78.433 196.433 80 194.5 80C192.567 80 191 78.433 191 76.5C191 74.567 192.567 73 194.5 73C196.433 73 198 74.567 198 76.5Z" fill="black"/>
<path d="M20 201C17.7909 201 16 199.209 16 197V156C16 153.791 17.7909 152 20 152H212C214.209 152 216 153.791 216 156V197C216 199.209 214.209 201 212 201H20Z" fill="#1E91D6"/>
<path fill-rule="evenodd" clip-rule="evenodd" d="M22 195H210V158H22V195ZM16 197C16 199.209 17.7909 201 20 201H212C214.209 201 216 199.209 216 197V156C216 153.791 214.209 152 212 152H20C17.7909 152 16 153.791 16 156V197Z" fill="black"/>
<path d="M41 167.5C41 169.433 39.433 171 37.5 171C35.567 171 34 169.433 34 167.5C34 165.567 35.567 164 37.5 164C39.433 164 41 165.567 41 167.5Z" fill="black"/>
<path d="M41 185.5C41 187.433 39.433 189 37.5 189C35.567 189 34 187.433 34 185.5C34 183.567 35.567 182 37.5 182C39.433 182 41 183.567 41 185.5Z" fill="black"/>
<path d="M198 167.5C198 169.433 196.433 171 194.5 171C192.567 171 191 169.433 191 167.5C191 165.567 192.567 164 194.5 164C196.433 164 198 165.567 198 167.5Z" fill="black"/>
<path d="M198 185.5C198 187.433 196.433 189 194.5 189C192.567 189 191 187.433 191 185.5C191 183.567 192.567 182 194.5 182C196.433 182 198 183.567 198 185.5Z" fill="black"/>
<path d="M245 20C245 17.7909 246.791 16 249 16H274C276.209 16 278 17.7909 278 20V197C278 199.209 276.209 201 274 201H249C246.791 201 245 199.209 245 197V20Z" fill="#038857"/>
<path fill-rule="evenodd" clip-rule="evenodd" d="M251 22V195H272V22H251ZM249 16C246.791 16 245 17.7909 245 20V197C245 199.209 246.791 201 249 201H274C276.209 201 278 199.209 278 197V20C278 17.7909 276.209 16 274 16H249Z" fill="black"/>
<path d="M402 20C402 17.7909 403.791 16 406 16H431C433.209 16 435 17.7909 435 20V197C435 199.209 433.209 201 431 201H406C403.791 201 402 199.209 402 197V20Z" fill="#038857"/>
<path fill-rule="evenodd" clip-rule="evenodd" d="M408 22V195H429V22H408ZM406 16C403.791 16 402 17.7909 402 20V197C402 199.209 403.791 201 406 201H431C433.209 201 435 199.209 435 197V20C435 17.7909 433.209 16 431 16H406Z" fill="black"/>
<path d="M244 146C241.791 146 240 144.209 240 142V101C240 98.7909 241.791 97 244 97H436C438.209 97 440 98.7909 440 101V142C440 144.209 438.209 146 436 146H244Z" fill="#038857"/>
<path fill-rule="evenodd" clip-rule="evenodd" d="M246 140H434V103H246V140ZM240 142C240 144.209 241.791 146 244 146H436C438.209 146 440 144.209 440 142V101C440 98.7909 438.209 97 436 97H244C241.791 97 240 98.7909 240 101V142Z" fill="black"/>
<path d="M265 113.5C265 115.433 263.433 117 261.5 117C259.567 117 258 115.433 258 113.5C258 111.567 259.567 110 261.5 110C263.433 110 265 111.567 265 113.5Z" fill="black"/>
<path d="M265 131.5C265 133.433 263.433 135 261.5 135C259.567 135 258 133.433 258 131.5C258 129.567 259.567 128 261.5 128C263.433 128 265 129.567 265 131.5Z" fill="black"/>
<path d="M422 113.5C422 115.433 420.433 117 418.5 117C416.567 117 415 115.433 415 113.5C415 111.567 416.567 110 418.5 110C420.433 110 422 111.567 422 113.5Z" fill="black"/>
<path d="M422 131.5C422 133.433 420.433 135 418.5 135C416.567 135 415 133.433 415 131.5C415 129.567 416.567 128 418.5 128C420.433 128 422 129.567 422 131.5Z" fill="black"/>
<path d="M244 91C241.791 91 240 89.2091 240 87V46C240 43.7909 241.791 42 244 42H436C438.209 42 440 43.7909 440 46V87C440 89.2091 438.209 91 436 91H244Z" fill="#038857"/>
<path fill-rule="evenodd" clip-rule="evenodd" d="M246 85H434V48H246V85ZM240 87C240 89.2091 241.791 91 244 91H436C438.209 91 440 89.2091 440 87V46C440 43.7909 438.209 42 436 42H244C241.791 42 240 43.7909 240 46V87Z" fill="black"/>
<path d="M244 91C241.791 91 240 89.2091 240 87V46C240 43.7909 241.791 42 244 42H436C438.209 42 440 43.7909 440 46V87C440 89.2091 438.209 91 436 91H244Z" fill="#038857"/>
<path fill-rule="evenodd" clip-rule="evenodd" d="M246 85H434V48H246V85ZM240 87C240 89.2091 241.791 91 244 91H436C438.209 91 440 89.2091 440 87V46C440 43.7909 438.209 42 436 42H244C241.791 42 240 43.7909 240 46V87Z" fill="black"/>
<path d="M265 58.5C265 60.433 263.433 62 261.5 62C259.567 62 258 60.433 258 58.5C258 56.567 259.567 55 261.5 55C263.433 55 265 56.567 265 58.5Z" fill="black"/>
<path d="M265 76.5C265 78.433 263.433 80 261.5 80C259.567 80 258 78.433 258 76.5C258 74.567 259.567 73 261.5 73C263.433 73 265 74.567 265 76.5Z" fill="black"/>
<path d="M422 58.5C422 60.433 420.433 62 418.5 62C416.567 62 415 60.433 415 58.5C415 56.567 416.567 55 418.5 55C420.433 55 422 56.567 422 58.5Z" fill="black"/>
<path d="M422 76.5C422 78.433 420.433 80 418.5 80C416.567 80 415 78.433 415 76.5C415 74.567 416.567 73 418.5 73C420.433 73 422 74.567 422 76.5Z" fill="black"/>
<path d="M244 201C241.791 201 240 199.209 240 197V156C240 153.791 241.791 152 244 152H436C438.209 152 440 153.791 440 156V197C440 199.209 438.209 201 436 201H244Z" fill="#038857"/>
<path fill-rule="evenodd" clip-rule="evenodd" d="M246 195H434V158H246V195ZM240 197C240 199.209 241.791 201 244 201H436C438.209 201 440 199.209 440 197V156C440 153.791 438.209 152 436 152H244C241.791 152 240 153.791 240 156V197Z" fill="black"/>
<path d="M265 167.5C265 169.433 263.433 171 261.5 171C259.567 171 258 169.433 258 167.5C258 165.567 259.567 164 261.5 164C263.433 164 265 165.567 265 167.5Z" fill="black"/>
<path d="M265 185.5C265 187.433 263.433 189 261.5 189C259.567 189 258 187.433 258 185.5C258 183.567 259.567 182 261.5 182C263.433 182 265 183.567 265 185.5Z" fill="black"/>
<path d="M422 167.5C422 169.433 420.433 171 418.5 171C416.567 171 415 169.433 415 167.5C415 165.567 416.567 164 418.5 164C420.433 164 422 165.567 422 167.5Z" fill="black"/>
<path d="M422 185.5C422 187.433 420.433 189 418.5 189C416.567 189 415 187.433 415 185.5C415 183.567 416.567 182 418.5 182C420.433 182 422 183.567 422 185.5Z" fill="black"/>
<path d="M469 77C469 74.7909 470.791 73 473 73H498C500.209 73 502 74.7909 502 77V197C502 199.209 500.209 201 498 201H473C470.791 201 469 199.209 469 197V77Z" fill="#FD9406"/>
<path fill-rule="evenodd" clip-rule="evenodd" d="M475 79V195H496V79H475ZM473 73C470.791 73 469 74.7909 469 77V197C469 199.209 470.791 201 473 201H498C500.209 201 502 199.209 502 197V77C502 74.7909 500.209 73 498 73H473Z" fill="black"/>
<path d="M577 77C577 74.7909 578.791 73 581 73H606C608.209 73 610 74.7909 610 77V197C610 199.209 608.209 201 606 201H581C578.791 201 577 199.209 577 197V77Z" fill="#FD9406"/>
<path fill-rule="evenodd" clip-rule="evenodd" d="M583 79V195H604V79H583ZM581 73C578.791 73 577 74.7909 577 77V197C577 199.209 578.791 201 581 201H606C608.209 201 610 199.209 610 197V77C610 74.7909 608.209 73 606 73H581Z" fill="black"/>
<path d="M489 113.5C489 115.433 487.433 117 485.5 117C483.567 117 482 115.433 482 113.5C482 111.567 483.567 110 485.5 110C487.433 110 489 111.567 489 113.5Z" fill="black"/>
<path d="M489 131.5C489 133.433 487.433 135 485.5 135C483.567 135 482 133.433 482 131.5C482 129.567 483.567 128 485.5 128C487.433 128 489 129.567 489 131.5Z" fill="black"/>
<path d="M468 146C465.791 146 464 144.209 464 142V101C464 98.7909 465.791 97 468 97H610C612.209 97 614 98.7909 614 101V142C614 144.209 612.209 146 610 146H468Z" fill="#FD9406"/>
<path fill-rule="evenodd" clip-rule="evenodd" d="M470 140H608V103H470V140ZM464 142C464 144.209 465.791 146 468 146H610C612.209 146 614 144.209 614 142V101C614 98.7909 612.209 97 610 97H468C465.791 97 464 98.7909 464 101V142Z" fill="black"/>
<path d="M489 113.5C489 115.433 487.433 117 485.5 117C483.567 117 482 115.433 482 113.5C482 111.567 483.567 110 485.5 110C487.433 110 489 111.567 489 113.5Z" fill="black"/>
<path d="M489 131.5C489 133.433 487.433 135 485.5 135C483.567 135 482 133.433 482 131.5C482 129.567 483.567 128 485.5 128C487.433 128 489 129.567 489 131.5Z" fill="black"/>
<path d="M597 113.5C597 115.433 595.433 117 593.5 117C591.567 117 590 115.433 590 113.5C590 111.567 591.567 110 593.5 110C595.433 110 597 111.567 597 113.5Z" fill="black"/>
<path d="M597 131.5C597 133.433 595.433 135 593.5 135C591.567 135 590 133.433 590 131.5C590 129.567 591.567 128 593.5 128C595.433 128 597 129.567 597 131.5Z" fill="black"/>
<path d="M468 201C465.791 201 464 199.209 464 197V156C464 153.791 465.791 152 468 152H610C612.209 152 614 153.791 614 156V197C614 199.209 612.209 201 610 201H468Z" fill="#FD9406"/>
<path fill-rule="evenodd" clip-rule="evenodd" d="M470 195H608V158H470V195ZM464 197C464 199.209 465.791 201 468 201H610C612.209 201 614 199.209 614 197V156C614 153.791 612.209 152 610 152H468C465.791 152 464 153.791 464 156V197Z" fill="black"/>
<path d="M489 168.5C489 170.433 487.433 172 485.5 172C483.567 172 482 170.433 482 168.5C482 166.567 483.567 165 485.5 165C487.433 165 489 166.567 489 168.5Z" fill="black"/>
<path d="M489 186.5C489 188.433 487.433 190 485.5 190C483.567 190 482 188.433 482 186.5C482 184.567 483.567 183 485.5 183C487.433 183 489 184.567 489 186.5Z" fill="black"/>
<path d="M597 168.5C597 170.433 595.433 172 593.5 172C591.567 172 590 170.433 590 168.5C590 166.567 591.567 165 593.5 165C595.433 165 597 166.567 597 168.5Z" fill="black"/>
<path d="M597 186.5C597 188.433 595.433 190 593.5 190C591.567 190 590 188.433 590 186.5C590 184.567 591.567 183 593.5 183C595.433 183 597 184.567 597 186.5Z" fill="black"/>
<path d="M16.6406 348.998V235.561H40.1016V348.998H16.6406Z" fill="black"/>
<path d="M83.0531 350.029C76.1781 350.029 70.6996 348.74 66.6176 346.162C62.5355 343.584 59.6137 339.867 57.852 335.012C56.0902 330.156 55.2094 324.312 55.2094 317.48V278.615C55.2094 269.635 57.7875 262.846 62.9437 258.248C68.1 253.607 75.1898 251.287 84.2133 251.287C102.776 251.287 112.057 260.396 112.057 278.615V285.641C112.057 294.148 111.971 299.863 111.799 302.785H78.2836V321.477C78.2836 323.195 78.391 324.893 78.6059 326.568C78.8207 328.201 79.2934 329.555 80.0238 330.629C80.7973 331.703 82.0219 332.24 83.6977 332.24C86.1039 332.24 87.6078 331.209 88.2094 329.146C88.8109 327.041 89.1117 324.312 89.1117 320.961V311.68H112.057V317.158C112.057 324.377 111.155 330.436 109.35 335.334C107.588 340.189 104.58 343.863 100.327 346.355C96.1156 348.805 90.3578 350.029 83.0531 350.029ZM78.1547 291.312H89.1117V278.293C89.1117 274.812 88.682 272.32 87.8227 270.816C86.9633 269.27 85.6742 268.496 83.9555 268.496C82.1078 268.496 80.6684 269.227 79.6371 270.688C78.6488 272.148 78.1547 274.684 78.1547 278.293V291.312Z" fill="black"/>
<path d="M153.526 350.029C134.448 350.029 124.909 340.361 124.909 321.025V313.355H148.112V324.699C148.112 326.891 148.542 328.609 149.401 329.855C150.261 331.102 151.636 331.725 153.526 331.725C156.878 331.725 158.554 329.211 158.554 324.184C158.554 319.973 157.673 316.836 155.911 314.773C154.149 312.668 152.001 310.648 149.466 308.715L137.155 299.24C133.288 296.232 130.345 293.053 128.325 289.701C126.305 286.35 125.296 281.688 125.296 275.715C125.296 270.172 126.606 265.596 129.227 261.986C131.891 258.377 135.393 255.691 139.733 253.93C144.116 252.168 148.843 251.287 153.913 251.287C172.647 251.287 182.014 260.633 182.014 279.324V281.129H158.167V277.455C158.167 275.521 157.823 273.652 157.136 271.848C156.491 270.043 155.202 269.141 153.268 269.141C150.003 269.141 148.37 270.859 148.37 274.297C148.37 277.777 149.745 280.506 152.495 282.482L166.804 292.924C171.272 296.146 175.011 299.971 178.018 304.396C181.069 308.822 182.595 314.709 182.595 322.057C182.595 331.166 179.995 338.105 174.796 342.875C169.639 347.645 162.55 350.029 153.526 350.029Z" fill="black"/>
<path d="M260.377 350.287C250.365 350.287 243.082 347.645 238.527 342.359C233.972 337.074 231.695 329.104 231.695 318.447V306.588H254.962V318.512C254.962 321.52 255.328 324.076 256.058 326.182C256.832 328.244 258.529 329.275 261.15 329.275C263.814 329.275 265.511 328.158 266.242 325.924C266.972 323.646 267.337 319.951 267.337 314.838V312.002C267.337 308.092 266.671 304.676 265.339 301.754C264.05 298.832 261.494 297.371 257.67 297.371C257.197 297.371 256.767 297.393 256.38 297.436C256.037 297.436 255.736 297.457 255.478 297.5V277.133C259.388 277.133 262.375 276.273 264.437 274.555C266.5 272.793 267.531 269.871 267.531 265.789C267.531 259.387 265.683 256.186 261.988 256.186C259.582 256.186 257.949 257.131 257.089 259.021C256.273 260.869 255.865 263.232 255.865 266.111V269.527H232.404C232.361 269.012 232.318 268.389 232.275 267.658C232.275 266.928 232.275 266.219 232.275 265.531C232.275 255.133 234.703 247.506 239.558 242.65C244.414 237.795 251.847 235.367 261.859 235.367C281.195 235.367 290.863 245.422 290.863 265.531C290.863 271.117 290.111 275.736 288.607 279.389C287.103 282.998 284.31 285.533 280.228 286.994C283.451 288.541 285.836 290.518 287.382 292.924C288.929 295.33 289.939 298.316 290.412 301.883C290.884 305.449 291.121 309.768 291.121 314.838C291.121 326.182 288.736 334.926 283.966 341.07C279.24 347.215 271.377 350.287 260.377 350.287Z" fill="black"/>
<path d="M381.793 350.029C378.012 350.029 374.94 349.105 372.577 347.258C370.213 345.367 368.323 342.51 366.905 338.686V348.998H343.444V235.561H366.905V262.631C368.323 259.064 370.278 256.293 372.77 254.316C375.305 252.297 378.914 251.287 383.598 251.287C389.914 251.287 394.362 253.586 396.94 258.184C399.561 262.781 400.871 268.797 400.871 276.23V323.797C400.871 328.738 400.184 333.207 398.809 337.203C397.477 341.156 395.393 344.293 392.557 346.613C389.764 348.891 386.176 350.029 381.793 350.029ZM372.254 332.047C374.704 332.047 376.186 330.844 376.702 328.438C377.217 326.031 377.475 323.066 377.475 319.543V281.773C377.475 278.207 377.217 275.242 376.702 272.879C376.186 270.473 374.725 269.27 372.319 269.27C369.827 269.27 368.301 270.494 367.743 272.943C367.184 275.35 366.905 278.293 366.905 281.773V319.543C366.905 323.023 367.184 325.988 367.743 328.438C368.301 330.844 369.805 332.047 372.254 332.047Z" fill="black"/>
<path d="M433.639 350.029C428.268 350.029 424.165 348.783 421.329 346.291C418.536 343.799 416.624 340.383 415.593 336.043C414.561 331.703 414.046 326.783 414.046 321.283C414.046 315.396 414.626 310.584 415.786 306.846C416.946 303.064 418.923 299.971 421.716 297.564C424.552 295.158 428.44 293.117 433.382 291.441L447.69 286.543V276.617C447.69 271.418 445.993 268.818 442.598 268.818C439.505 268.818 437.958 270.924 437.958 275.135V280.936H415.528C415.485 280.592 415.464 280.162 415.464 279.646C415.464 279.088 415.464 278.465 415.464 277.777C415.464 268.152 417.72 261.342 422.231 257.346C426.786 253.307 433.983 251.287 443.823 251.287C448.979 251.287 453.598 252.211 457.68 254.059C461.763 255.863 464.985 258.549 467.348 262.115C469.755 265.682 470.958 270.086 470.958 275.328V348.998H448.013V337.525C446.895 341.564 445.048 344.658 442.47 346.807C439.891 348.955 436.948 350.029 433.639 350.029ZM442.727 332.111C444.618 332.111 445.907 331.316 446.595 329.727C447.282 328.137 447.626 326.418 447.626 324.57V297.629C444.446 298.918 441.975 300.551 440.214 302.527C438.452 304.461 437.571 307.318 437.571 311.1V323.539C437.571 329.254 439.29 332.111 442.727 332.111Z" fill="black"/>
<path d="M515.521 350.029C504.693 350.029 497.001 347.258 492.446 341.715C487.935 336.172 485.679 328.029 485.679 317.287V287.51C485.679 279.432 486.538 272.707 488.257 267.336C489.976 261.965 492.984 257.947 497.28 255.283C501.577 252.619 507.55 251.287 515.198 251.287C520.527 251.287 525.296 252.232 529.507 254.123C533.761 256.014 537.112 258.785 539.562 262.438C542.011 266.09 543.236 270.559 543.236 275.844V290.604H519.71V277.068C519.71 274.834 519.388 272.965 518.743 271.461C518.099 269.914 516.702 269.141 514.554 269.141C510.773 269.141 508.882 271.826 508.882 277.197V324.055C508.882 326.031 509.312 327.857 510.171 329.533C511.03 331.166 512.448 331.982 514.425 331.982C516.445 331.982 517.841 331.188 518.614 329.598C519.431 327.965 519.839 326.074 519.839 323.926V307.684H543.236V324.57C543.236 329.898 542.032 334.475 539.626 338.299C537.263 342.08 533.997 344.98 529.829 347C525.661 349.02 520.892 350.029 515.521 350.029Z" fill="black"/>
<path d="M584.382 350.029C565.304 350.029 555.765 340.361 555.765 321.025V313.355H578.968V324.699C578.968 326.891 579.398 328.609 580.257 329.855C581.117 331.102 582.492 331.725 584.382 331.725C587.734 331.725 589.41 329.211 589.41 324.184C589.41 319.973 588.529 316.836 586.767 314.773C585.005 312.668 582.857 310.648 580.322 308.715L568.011 299.24C564.144 296.232 561.201 293.053 559.181 289.701C557.162 286.35 556.152 281.688 556.152 275.715C556.152 270.172 557.463 265.596 560.084 261.986C562.748 258.377 566.25 255.691 570.589 253.93C574.972 252.168 579.699 251.287 584.769 251.287C603.504 251.287 612.871 260.633 612.871 279.324V281.129H589.023V277.455C589.023 275.521 588.679 273.652 587.992 271.848C587.347 270.043 586.058 269.141 584.125 269.141C580.859 269.141 579.226 270.859 579.226 274.297C579.226 277.777 580.601 280.506 583.351 282.482L597.66 292.924C602.129 296.146 605.867 299.971 608.875 304.396C611.925 308.822 613.451 314.709 613.451 322.057C613.451 331.166 610.851 338.105 605.652 342.875C600.496 347.645 593.406 350.029 584.382 350.029Z" fill="black"/>
</svg>
